<?xml version="1.0" standalone="yes"?>
<!DOCTYPE svg PUBLIC "-//W3C//DTD SVG 1.1//EN"
 "http://www.w3.org/Graphics/SVG/1.1/DTD/svg11.dtd">
<svg xmlns="http://www.w3.org/2000/svg" version="1.1"
  width="100%" height="100%" viewBox="0 0 1024 768"
  style="fill: none; font-family: Arial;
 font: Arial;
">

<!-- Creator: NGspice -->

<rect x="0" y="0" width="1024" height="768" fill="white" stroke="none"/>
<text stroke="none" fill="black" font-size="16" x="358" y="752">
Time(ns)
</text>
<text transform="rotate(-90, 20, 429)"  stroke="none" fill="black" font-size="16" x="20" y="429">
Output(V)
</text>
<text stroke="none" fill="black" font-size="16" x="10" y="16">
tran39: Output_Signal
</text>
<path stroke="black" d="M75 704l0 -637"/>
<text stroke="none" fill="black" font-size="16" x="60" y="728">
0.0
</text>
<path stroke="black" stroke-dasharray="1,2" d="M164 704l0 -637"/>
<text stroke="none" fill="black" font-size="16" x="144" y="728">
50.0
</text>
<path stroke="black" stroke-dasharray="1,2" d="M253 704l0 -637"/>
<text stroke="none" fill="black" font-size="16" x="228" y="728">
100.0
</text>
<path stroke="black" stroke-dasharray="1,2" d="M342 704l0 -637"/>
<text stroke="none" fill="black" font-size="16" x="317" y="728">
150.0
</text>
<path stroke="black" stroke-dasharray="1,2" d="M431 704l0 -637"/>
<text stroke="none" fill="black" font-size="16" x="406" y="728">
200.0
</text>
<path stroke="black" stroke-dasharray="1,2" d="M520 704l0 -637"/>
<text stroke="none" fill="black" font-size="16" x="495" y="728">
250.0
</text>
<path stroke="black" stroke-dasharray="1,2" d="M609 704l0 -637"/>
<text stroke="none" fill="black" font-size="16" x="584" y="728">
300.0
</text>
<path stroke="black" stroke-dasharray="1,2" d="M698 704l0 -637"/>
<text stroke="none" fill="black" font-size="16" x="673" y="728">
350.0
</text>
<path stroke="black" stroke-dasharray="1,2" d="M787 704l0 -637"/>
<text stroke="none" fill="black" font-size="16" x="762" y="728">
400.0
</text>
<path stroke="black" stroke-dasharray="1,2" d="M876 704l0 -637"/>
<text stroke="none" fill="black" font-size="16" x="851" y="728">
450.0
</text>
<path stroke="black" stroke-dasharray="1,2" d="M965 704l0 -637"/>
<text stroke="none" fill="black" font-size="16" x="940" y="728">
500.0
</text>
<text stroke="none" fill="black" font-size="16" x="614" y="752">
ns
</text>
<path stroke="black" d="M75 704l890 0"/>
<text stroke="none" fill="black" font-size="16" x="43" y="712">
0.0
</text>
<path stroke="black" stroke-dasharray="1,2" d="M75 655l890 0"/>
<text stroke="none" fill="black" font-size="16" x="43" y="663">
0.2
</text>
<path stroke="black" stroke-dasharray="1,2" d="M75 606l890 0"/>
<text stroke="none" fill="black" font-size="16" x="43" y="614">
0.4
</text>
<path stroke="black" stroke-dasharray="1,2" d="M75 557l890 0"/>
<text stroke="none" fill="black" font-size="16" x="43" y="565">
0.6
</text>
<path stroke="black" stroke-dasharray="1,2" d="M75 508l890 0"/>
<text stroke="none" fill="black" font-size="16" x="43" y="516">
0.8
</text>
<path stroke="black" stroke-dasharray="1,2" d="M75 459l890 0"/>
<text stroke="none" fill="black" font-size="16" x="43" y="467">
1.0
</text>
<path stroke="black" stroke-dasharray="1,2" d="M75 410l890 0"/>
<text stroke="none" fill="black" font-size="16" x="43" y="418">
1.2
</text>
<path stroke="black" stroke-dasharray="1,2" d="M75 361l890 0"/>
<text stroke="none" fill="black" font-size="16" x="43" y="369">
1.4
</text>
<path stroke="black" stroke-dasharray="1,2" d="M75 312l890 0"/>
<text stroke="none" fill="black" font-size="16" x="43" y="320">
1.6
</text>
<path stroke="black" stroke-dasharray="1,2" d="M75 263l890 0"/>
<text stroke="none" fill="black" font-size="16" x="43" y="271">
1.8
</text>
<path stroke="black" stroke-dasharray="1,2" d="M75 214l890 0"/>
<text stroke="none" fill="black" font-size="16" x="43" y="222">
2.0
</text>
<path stroke="black" stroke-dasharray="1,2" d="M75 165l890 0"/>
<text stroke="none" fill="black" font-size="16" x="43" y="173">
2.2
</text>
<path stroke="black" stroke-dasharray="1,2" d="M75 116l890 0"/>
<text stroke="none" fill="black" font-size="16" x="43" y="124">
2.4
</text>
<path stroke="black" stroke-dasharray="1,2" d="M75 67l890 0"/>
<text stroke="none" fill="black" font-size="16" x="43" y="75">
2.6
</text>
<text stroke="none" fill="black" font-size="16" x="10" y="32">
V
</text>
<path stroke="red" d="M75 360l2 0 4 2 2 3 1 3 2 3 4 10 2 6 1 7 4 16 2 9 1 9 2 11 2 10 2 11 2 12 1 12 2 12 2 13 2 12 1 13 6 39 2 12 1 10 2 10 4 14 1 5 4 10 2 3 2 4 1 3 2 3 2 2 2 3 1 2 2 1 2 2 4 2 1 1 4 2 7 0 2 -1 2 0 1 -1 4 -2 5 -5 2 -3 2 -2 2 -3"/>
<path stroke="red" d="M188 645l1 -3 2 -3 4 -8 2 -5 1 -5 2 -6 4 -16 1 -10 2 -12 4 -26 2 -14 1 -14 2 -13 2 -14 2 -13 1 -13 4 -26 4 -24 1 -11 2 -10 2 -11 2 -9 1 -9 2 -8 2 -7 4 -12 1 -5 2 -4 2 -3 2 -2 1 -2 4 0 2 1 2 2 1 3 4 8 4 12 1 7 2 7 4 18 1 9"/>
<path stroke="red" d="M278 394l2 10 6 33 1 12 2 13 2 12 2 13 1 13 2 13 2 14 4 26 1 13 2 12 2 11 2 10 1 8 2 7 2 6 2 5 2 4 1 4 2 4 2 3 2 2 1 3 4 4 4 2 1 2 2 0 2 1 2 0 1 1 2 0 2 -1 2 0 2 -1 1 -1 4 -2 4 -4 1 -2 2 -2 4 -6 1 -4 4 -8 2 -5 2 -6 1 -7"/>
<path stroke="red" d="M376 606l2 -9 2 -10 2 -11 1 -13 2 -13 2 -14 2 -13 2 -14 1 -14 4 -28 2 -13 1 -13 4 -26 2 -12 2 -11 1 -12 6 -30 1 -8 2 -8 4 -14 2 -5 1 -5 2 -4 4 -6 1 -1 2 -1 4 2 2 2 1 3 4 8 4 12 1 7 2 7 2 8 2 9 1 10 2 10 6 33 1 12 2 12 4 26"/>
<path stroke="red" d="M471 459l1 13 2 13 2 14 4 26 1 13 4 26 2 12 1 11 2 10 2 8 2 7 2 5 1 5 4 8 2 3 1 3 2 3 2 2 2 1 3 3 4 2 2 0 1 1 2 0 2 -1 2 0 2 -1 1 -1 4 -2 4 -4 1 -3 6 -9 1 -5 2 -4 4 -12 2 -8 1 -10 2 -10 2 -12 2 -13 1 -13 4 -28 2 -13 2 -14"/>
<path stroke="red" d="M569 485l1 -14 4 -28 2 -13 1 -13 4 -26 4 -24 1 -11 6 -30 1 -8 2 -8 4 -14 2 -5 1 -5 2 -4 2 -3 2 -2 1 -2 4 0 2 1 2 2 1 3 4 8 4 12 1 7 2 7 4 18 1 9 2 10 6 33 1 12 2 13 2 12 2 13 1 13 2 14 4 26 2 14 1 13 6 39 1 12 4 22 2 9 2 7"/>
<path stroke="red" d="M674 604l1 7 4 10 2 3 1 4 2 2 2 3 5 5 6 3 5 0 2 -1 2 0 3 -3 2 -1 2 -2 2 -3 1 -3 4 -6 2 -5 1 -5 2 -5 2 -7 2 -9 2 -10 1 -11 4 -24 2 -13 1 -14 2 -13 6 -42 1 -14 2 -14 2 -13 2 -14 1 -13 4 -26 2 -12 2 -11 1 -12 4 -20 2 -9 1 -9"/>
<path stroke="red" d="M771 297l2 -8 2 -7 4 -12 1 -4 2 -4 4 -6 1 -1 2 -1 4 2 2 2 1 3 4 8 4 12 1 7 2 7 2 8 2 9 1 10 2 10 6 33 1 12 2 12 4 26 1 13 2 13 2 14 4 26 1 14 6 39 1 12 4 24 4 20 1 8 2 7 4 10 1 4 6 9 5 5 2 1 2 0 1 1 4 0 4 -2 1 -1 2 -1 2 -2"/>
<path stroke="red" d="M889 629l2 -3 2 -2 1 -3 4 -8 2 -5 1 -6 4 -16 2 -10 2 -11 1 -12 2 -12 4 -26 1 -14 2 -14 2 -13 4 -28 1 -14 4 -28 2 -13 1 -13 4 -26 4 -24 1 -11 4 -20 2 -9 1 -9 2 -8 2 -7 2 -6 2 -5 1 -5 2 -4 2 -3 3 -3"/>
<path stroke="blue" d="M75 328l2 0 4 2 2 2 1 3 4 8 2 5 2 6 1 7 4 14 2 9 1 9 2 9 2 10 4 22 1 11 6 36 1 12 4 26 2 12 2 13 1 12 4 24 2 10 1 10 2 8 2 7 4 10 1 4 2 4 4 6 1 3 4 4 2 1 3 3 4 2 9 0 2 -1 1 -1 4 -2 4 -4 1 -2 2 -3 2 -2 2 -4 1 -3 2 -5 2 -4"/>
<path stroke="blue" d="M193 621l4 -12 1 -8 2 -9 4 -22 1 -13 2 -12 2 -13 2 -14 2 -13 1 -13 6 -39 1 -12 2 -13 2 -12 4 -22 1 -11 4 -20 2 -8 1 -9 4 -14 4 -12 1 -4 2 -4 2 -3 2 -2 1 -2 4 0 2 1 2 2 1 3 2 3 2 4 2 5 2 6 1 7 2 7 4 16 1 9 6 30 2 11 1 11"/>
<path stroke="blue" d="M287 420l6 36 1 13 2 12 2 13 2 12 2 13 1 13 6 36 1 11 2 11 2 9 2 8 2 6 1 5 2 5 2 4 2 3 1 3 2 3 7 7 4 2 2 0 1 1 2 0 2 -1 2 0 2 -1 1 -1 4 -2 4 -4 1 -3 4 -6 2 -4 1 -4 2 -5 2 -6 2 -7 2 -9 1 -9 2 -11 4 -24 1 -13 8 -52 1 -14"/>
<path stroke="blue" d="M392 470l4 -26 2 -12 1 -13 6 -36 2 -11 1 -11 2 -10 4 -18 1 -8 2 -8 2 -7 2 -6 2 -5 1 -5 2 -4 2 -3 3 -3 2 -1 4 2 2 2 5 10 2 5 2 6 1 6 2 7 2 8 2 9 1 9 2 9 2 10 4 22 1 11 6 36 1 12 4 26 2 12 2 13 1 13 6 36 1 12 4 22 2 10 2 8"/>
<path stroke="blue" d="M496 599l1 7 2 6 2 5 2 4 1 4 4 6 5 5 6 3 7 0 2 -1 3 -3 2 -1 2 -2 2 -3 1 -3 2 -3 4 -8 1 -5 4 -14 2 -9 2 -10 1 -11 2 -11 2 -13 2 -12 1 -13 8 -52 1 -14 6 -39 1 -12 6 -36 2 -11 1 -11 2 -10 4 -18 1 -8 2 -8 2 -7 2 -6 2 -5 1 -5"/>
<path stroke="blue" d="M602 275l4 -6 2 -2 1 -2 4 0 2 1 2 2 1 3 2 3 2 4 2 5 2 6 1 7 2 7 4 16 1 9 6 30 2 11 1 12 2 11 4 24 1 13 2 12 4 26 2 12 1 13 2 13 4 24 1 12 6 33 2 10 1 8 2 8 4 12 1 4 2 4 2 3 4 4 1 2 2 2 2 1 2 0 1 1 4 0 4 -2 1 -1 2 -1 2 -2"/>
<path stroke="blue" d="M711 627l2 -3 2 -2 1 -4 2 -3 4 -10 1 -7 2 -7 2 -9 2 -10 2 -11 1 -11 4 -24 2 -13 1 -13 8 -52 1 -14 6 -39 1 -12 6 -36 2 -11 1 -10 2 -11 4 -18 1 -8 4 -14 4 -12 1 -4 2 -4 2 -3 3 -3 2 -1 2 0 2 1 2 2 1 3 4 8 2 5 2 6 1 6 2 7 4 16"/>
<path stroke="blue" d="M811 302l1 9 4 20 4 22 1 11 6 36 1 12 2 13 2 12 4 26 1 12 2 13 2 12 2 13 1 12 6 33 2 10 1 10 2 9 4 14 1 5 2 5 2 4 2 3 2 2 1 2 2 2 4 2 7 0 2 -1 1 -2 2 -1 2 -2 4 -6 1 -4 2 -4 4 -12 1 -8 4 -18 4 -22 1 -11 2 -12 2 -13 2 -12"/>
<path stroke="blue" d="M916 498l1 -13 6 -39 2 -14 1 -13 6 -39 1 -12 2 -13 2 -12 4 -22 1 -11 2 -10 4 -18 1 -8 4 -14 4 -12 1 -4 2 -4 2 -3 3 -3"/>
<path stroke="#FFA500" d="M75 298l1 0 1 1 2 0 4 4 5 10 4 10 1 6 4 14 2 8 1 9 4 18 4 20 1 11 4 22 2 12 1 12 2 11 6 36 1 12 4 24 2 11 1 11 2 11 4 20 2 8 1 7 2 6 4 10 1 3 4 6 7 7 2 1 2 0 1 1 2 0 2 -1 2 0 2 -1 1 -1 2 -1 6 -6 1 -3 2 -3 4 -8 1 -5 4 -14"/>
<path stroke="#FFA500" d="M193 597l2 -8 2 -10 1 -10 2 -11 4 -24 1 -12 4 -24 2 -13 2 -12 1 -13 2 -12 2 -13 2 -12 1 -12 2 -11 2 -12 2 -11 2 -10 1 -10 2 -10 2 -9 2 -8 1 -8 4 -14 2 -6 2 -5 1 -4 2 -4 2 -3 3 -3 2 -1 2 1 2 0 2 2 1 3 2 3 2 4 4 10 1 6"/>
<path stroke="#FFA500" d="M271 311l4 14 2 8 1 9 4 18 2 10 2 11 1 10 2 11 2 12 2 11 1 12 8 48 1 12 2 11 4 24 1 11 2 11 6 30 1 8 2 8 4 12 1 4 2 4 4 6 2 2 1 2 6 3 7 0 2 -1 7 -7 2 -3 1 -3 4 -8 2 -5 1 -7 2 -7 4 -18 2 -11 1 -10 2 -11 4 -24 1 -12 2 -12"/>
<path stroke="#FFA500" d="M385 494l2 -13 2 -12 2 -13 1 -12 2 -13 4 -24 1 -12 2 -12 6 -33 1 -10 6 -27 1 -7 2 -8 4 -12 2 -5 1 -4 2 -4 2 -3 3 -3 2 -1 2 0 2 1 2 2 1 3 2 3 2 4 4 10 1 6 4 14 2 8 1 9 4 18 4 20 1 11 4 22 2 12 1 12 2 12 2 11 2 12 2 13"/>
<path stroke="#FFA500" d="M480 469l1 11 6 36 1 11 4 22 4 20 1 9 4 16 2 6 1 6 2 5 2 3 2 4 2 2 1 2 2 2 4 2 1 1 4 0 4 -2 5 -5 4 -6 1 -4 2 -4 4 -12 1 -7 4 -18 4 -20 1 -11 2 -11 4 -24 1 -12 2 -12 2 -13 2 -12 2 -13 1 -12 2 -13 4 -24 1 -12 2 -12 6 -33"/>
<path stroke="#FFA500" d="M585 335l1 -10 4 -18 2 -8 1 -8 4 -14 2 -6 2 -5 1 -4 2 -4 2 -3 3 -3 2 -1 6 3 1 3 2 3 2 4 4 10 1 6 4 14 2 8 1 9 4 18 2 10 2 11 1 10 2 11 2 12 2 11 1 12 8 48 1 12 2 12 2 11 2 12 1 11 4 22 4 20 1 10 2 8 2 9 2 7 1 6 2 6 2 5"/>
<path stroke="#FFA500" d="M686 605l2 4 2 3 1 2 4 4 2 1 1 1 4 0 4 -2 3 -3 4 -6 2 -4 1 -4 4 -12 2 -7 1 -8 4 -18 2 -10 2 -11 1 -11 2 -11 4 -24 1 -12 2 -12 2 -13 2 -12 2 -13 1 -12 2 -13 4 -24 1 -12 2 -12 4 -22 2 -10 1 -10 2 -10 2 -9 2 -8 1 -8 4 -14"/>
<path stroke="#FFA500" d="M775 263l4 -10 1 -5 4 -6 2 -2 1 -2 4 0 2 1 2 2 7 14 2 6 1 6 4 14 2 8 1 8 2 9 6 30 1 11 4 22 2 12 1 11 8 48 1 12 4 24 2 11 1 12 4 22 4 20 1 9 4 18 2 7 1 8 2 6 4 10 2 4 1 3 4 4 2 1 1 1 4 0 4 -2 1 -1 6 -9 2 -5 1 -5 2 -6"/>
<path stroke="#FFA500" d="M896 584l4 -14 1 -9 4 -18 2 -10 2 -11 1 -11 2 -11 4 -24 1 -12 2 -12 2 -13 2 -12 2 -13 1 -12 2 -13 4 -24 1 -12 2 -12 4 -22 2 -10 1 -10 2 -10 2 -9 2 -8 1 -8 2 -7 4 -12 2 -5 1 -4 2 -4 2 -3 3 -3"/>
<path stroke="green" d="M75 271l1 0 1 1 2 0 2 2 2 1 1 3 2 3 4 8 2 5 1 6 2 6 2 7 2 8 1 8 2 8 4 18 2 10 1 10 2 11 2 10 2 11 1 11 4 22 2 12 2 11 1 11 2 12 4 22 1 10 2 11 2 10 2 9 2 10 1 9 4 16 2 7 1 6 2 6 4 8 2 3 1 3 2 2 4 2 1 1 4 0 2 -1 2 0 1 -2"/>
<path stroke="green" d="M173 618l4 -4 2 -3 2 -4 1 -4 2 -5 2 -6 2 -7 1 -8 2 -8 4 -18 2 -10 1 -10 6 -33 1 -12 2 -11 6 -36 1 -11 4 -24 2 -11 1 -12 2 -11 2 -10 2 -11 2 -9 1 -10 2 -9 4 -16 1 -8 2 -7 2 -6 4 -10 1 -4 2 -4 4 -4 1 -2 4 0 4 2 1 3 4 6 4 10"/>
<path stroke="green" d="M270 281l1 6 2 6 4 14 1 8 6 27 2 10 1 10 2 10 4 22 1 11 6 33 2 12 1 11 6 33 1 11 6 30 2 9 1 9 2 9 2 8 2 7 1 7 2 6 4 10 2 3 1 4 4 4 2 1 1 1 4 0 4 -2 1 -1 2 -3 2 -2 4 -8 1 -5 4 -12 2 -7 1 -8 6 -27 2 -10 1 -10 6 -33 1 -12"/>
<path stroke="green" d="M383 473l2 -11 6 -36 1 -12 2 -11 2 -12 2 -11 1 -12 2 -11 2 -10 2 -11 2 -9 1 -10 2 -9 4 -16 1 -8 2 -6 2 -7 4 -10 1 -4 2 -4 4 -4 1 -2 4 0 2 1 2 2 1 2 2 3 4 8 2 5 1 6 2 6 4 14 1 8 6 27 2 10 1 10 2 10 4 22 1 11 6 33 2 12 1 11"/>
<path stroke="green" d="M481 448l6 33 1 11 2 10 2 11 2 9 2 10 1 9 6 24 1 7 4 12 2 5 2 4 1 3 2 3 5 5 4 0 4 -2 1 -2 2 -2 2 -4 2 -3 2 -5 1 -5 2 -6 2 -7 2 -8 1 -8 2 -8 2 -9 4 -20 1 -10 6 -33 1 -11 4 -24 2 -11 2 -12 1 -12 2 -12 2 -11 2 -12 1 -11 4 -22"/>
<path stroke="green" d="M581 334l4 -20 1 -9 4 -18 2 -8 1 -7 2 -7 2 -6 4 -10 1 -4 2 -4 4 -4 1 -2 4 0 4 2 1 3 4 6 4 10 1 6 2 6 4 14 1 8 2 9 2 8 4 20 1 10 2 10 2 11 2 10 1 12 6 33 2 12 1 11 6 33 1 11 8 40 1 9 6 24 1 7 4 12 4 10 1 3 2 4 5 5 4 0 4 -2"/>
<path stroke="green" d="M706 592l1 -2 4 -6 2 -5 2 -4 1 -6 2 -6 4 -14 1 -8 4 -18 4 -20 1 -10 6 -33 1 -11 4 -24 2 -11 2 -12 1 -12 4 -24 2 -11 1 -11 4 -22 4 -20 1 -9 4 -18 2 -7 1 -8 2 -7 2 -6 4 -10 1 -4 4 -6 3 -3 2 -1 2 0 2 1 2 2 1 2 2 3 4 8 2 5"/>
<path stroke="green" d="M804 244l1 6 2 6 4 14 1 8 6 27 2 10 1 10 2 10 4 22 1 11 4 22 2 12 2 11 1 11 6 33 1 11 2 11 4 20 2 9 1 9 2 9 2 8 2 7 1 8 4 12 4 10 1 4 2 3 5 5 2 1 2 0 2 -1 2 -2 1 -2 4 -6 4 -10 1 -5 2 -6 2 -7 2 -8 1 -8 2 -8 2 -10 2 -9 2 -10"/>
<path stroke="green" d="M909 492l1 -10 6 -33 1 -12 2 -12 2 -11 4 -24 1 -12 2 -12 2 -11 2 -12 1 -11 2 -11 6 -30 1 -10 2 -9 4 -16 1 -7 2 -7 2 -6 4 -10 1 -4 2 -4 5 -5"/>
<path stroke="#FFC0C5" d="M75 247l2 0 6 3 1 3 4 6 2 4 2 5 1 5 2 6 4 14 1 7 4 16 4 18 1 10 2 9 4 20 1 11 2 10 2 11 2 10 2 11 1 11 4 20 2 11 1 10 2 10 6 27 1 9 4 16 2 7 1 6 4 12 2 5 2 4 1 4 2 3 5 5 2 1 2 0 4 -2 1 -2 4 -6 2 -4 2 -5 1 -5 4 -12 2 -7"/>
<path stroke="#FFC0C5" d="M188 544l1 -8 4 -16 2 -9 2 -10 1 -9 2 -10 2 -11 2 -10 1 -11 8 -44 1 -11 6 -33 1 -11 4 -20 2 -9 2 -10 1 -9 4 -16 2 -7 1 -7 2 -7 2 -6 2 -5 2 -4 1 -4 2 -4 5 -5 2 -1 2 0 4 2 1 3 2 2 4 8 2 5 1 5 4 12 2 7 1 8 2 7 6 27 1 9"/>
<path stroke="#FFC0C5" d="M287 332l6 30 1 10 2 11 2 10 4 22 1 10 2 11 4 20 1 10 4 20 4 18 1 8 2 9 4 14 1 7 4 12 2 5 2 4 1 4 4 6 2 1 1 2 4 0 4 -2 1 -2 4 -6 2 -4 2 -5 1 -5 2 -6 4 -14 1 -7 2 -8 6 -27 1 -10 4 -20 2 -11 1 -10 4 -22 2 -12 2 -11 1 -11"/>
<path stroke="#FFC0C5" d="M392 383l4 -22 2 -10 1 -11 6 -30 2 -9 1 -9 6 -24 1 -7 4 -12 4 -10 1 -3 2 -4 4 -4 1 -2 4 0 4 2 1 2 2 3 6 12 1 6 4 12 2 7 1 7 2 8 2 9 2 8 2 9 1 10 6 30 1 10 2 11 2 10 2 11 2 10 1 11 2 10 2 11 2 10 1 10 4 20 4 18 1 8 4 16"/>
<path stroke="#FFC0C5" d="M501 517l2 7 1 7 4 12 2 5 2 4 1 4 4 6 3 3 4 0 4 -2 1 -2 4 -6 2 -4 2 -5 1 -5 2 -6 4 -14 1 -7 2 -8 6 -27 1 -10 4 -20 2 -11 1 -11 8 -44 1 -11 4 -22 2 -10 1 -11 6 -30 2 -9 1 -9 6 -24 1 -7 4 -12 2 -5 2 -4 1 -4 2 -4 5 -5 2 -1"/>
<path stroke="#FFC0C5" d="M611 215l2 0 4 2 1 3 2 2 4 8 2 5 1 5 4 12 2 7 1 8 2 7 2 9 2 8 2 10 1 9 6 30 1 10 2 11 2 10 4 22 1 10 2 11 4 20 1 10 4 20 4 18 1 8 2 9 2 7 2 8 1 6 4 12 4 10 1 3 2 4 5 5 2 1 2 0 2 -1 2 -2 1 -2 2 -2 4 -8 2 -5 1 -5 4 -12"/>
<path stroke="#FFC0C5" d="M720 518l2 -8 1 -7 2 -8 6 -27 1 -10 4 -20 2 -11 1 -10 6 -33 2 -12 1 -11 4 -22 2 -10 1 -11 4 -20 2 -9 2 -10 1 -9 4 -16 2 -7 1 -7 4 -12 4 -10 1 -4 4 -6 3 -3 4 0 4 2 1 2 4 6 2 4 2 5 1 5 2 6 4 14 1 7 4 16 4 18 1 9 6 30 1 11"/>
<path stroke="#FFC0C5" d="M828 340l2 10 2 11 2 10 2 11 1 11 4 20 2 11 1 10 2 10 6 27 1 9 4 16 2 7 1 7 4 12 2 5 2 4 1 4 4 6 3 3 6 0 2 -2 1 -2 4 -6 2 -4 2 -5 1 -5 2 -6 4 -14 1 -8 4 -16 2 -9 2 -10 1 -9 2 -10 2 -11 2 -10 1 -11 8 -44 1 -11 6 -33 1 -10"/>
<path stroke="#FFC0C5" d="M933 308l6 -30 2 -9 1 -9 6 -24 1 -6 2 -7 2 -5 2 -6 2 -4 1 -4 4 -6 3 -3"/>
<path stroke="#A52A2A" d="M75 224l2 0 6 3 1 3 2 2 2 4 2 3 2 5 1 5 2 5 2 6 2 7 1 6 8 32 1 9 4 18 2 10 1 9 8 40 1 10 2 10 2 9 2 10 1 9 2 10 2 8 2 9 2 8 1 9 6 21 1 6 4 12 2 4 2 5 1 3 4 6 2 1 1 2 4 0 4 -2 1 -2 2 -2 2 -4 2 -3 2 -5 1 -5 2 -5 2 -6 2 -7"/>
<path stroke="#A52A2A" d="M188 502l1 -7 2 -7 2 -8 2 -9 2 -8 1 -9 2 -10 2 -9 2 -10 1 -10 2 -10 2 -11 2 -10 2 -11 1 -10 6 -30 1 -10 2 -10 6 -27 1 -8 2 -8 4 -14 1 -7 2 -6 4 -10 2 -4 1 -4 4 -6 2 -1 1 -2 6 0 2 2 1 2 2 2 2 3 2 4 2 5 1 4 6 18 1 7 2 8"/>
<path stroke="#A52A2A" d="M280 271l2 7 2 8 2 9 1 9 4 18 2 10 1 9 8 40 1 10 2 9 4 20 1 9 6 27 2 8 1 8 2 8 4 14 1 6 2 6 4 10 2 4 1 4 2 3 4 4 1 2 4 0 4 -2 1 -2 2 -2 2 -4 2 -3 2 -5 1 -5 2 -5 2 -6 2 -7 1 -7 2 -8 2 -7 4 -18 1 -9 2 -9 2 -10 2 -9 1 -11"/>
<path stroke="#A52A2A" d="M383 404l6 -30 2 -11 1 -10 6 -30 1 -10 2 -10 6 -27 1 -8 2 -8 4 -14 1 -7 2 -6 4 -10 2 -4 1 -4 4 -6 2 -1 1 -2 4 0 4 2 1 2 2 2 2 4 2 3 2 5 1 5 2 5 4 12 1 7 2 8 2 7 2 8 2 9 1 9 4 18 2 10 1 9 8 40 1 10 2 9 4 20 1 9 6 27 2 8"/>
<path stroke="#A52A2A" d="M496 454l1 8 2 8 4 14 1 6 2 6 4 10 2 4 1 4 4 6 2 1 1 2 4 0 4 -2 1 -2 2 -2 2 -4 2 -3 2 -5 1 -5 2 -5 2 -6 2 -7 1 -7 2 -7 2 -8 4 -18 1 -9 2 -9 2 -10 2 -9 1 -11 6 -30 2 -11 1 -10 6 -30 1 -10 2 -10 6 -27 1 -8 2 -8 4 -14 1 -7"/>
<path stroke="#A52A2A" d="M593 229l2 -5 2 -6 2 -5 2 -4 1 -4 2 -3 5 -5 2 -1 2 0 4 2 1 2 4 6 4 8 1 5 2 5 2 6 2 7 1 7 2 7 6 24 1 9 4 18 2 10 1 9 8 40 1 10 2 10 2 9 2 10 1 9 2 10 2 9 2 8 2 9 1 8 6 21 1 7 2 5 2 6 2 5 2 4 1 3 4 6 3 3 2 1 2 -1 2 0 2 -2"/>
<path stroke="#A52A2A" d="M706 511l1 -2 2 -2 2 -3 4 -8 1 -5 4 -12 2 -7 1 -7 2 -7 2 -8 2 -9 2 -8 1 -9 2 -10 2 -9 2 -10 1 -10 2 -10 2 -11 4 -20 1 -11 6 -30 1 -10 2 -9 2 -10 2 -9 2 -8 1 -8 4 -16 2 -7 1 -6 2 -6 4 -10 2 -4 1 -4 4 -6 3 -3 6 0 2 2 1 2"/>
<path stroke="#A52A2A" d="M796 191l2 2 2 3 2 4 2 5 1 4 6 18 1 7 2 7 4 16 2 9 1 9 6 27 1 10 8 40 1 9 6 30 1 9 6 27 2 8 1 8 2 8 4 14 1 6 2 6 4 10 2 4 1 4 2 3 5 5 2 1 2 0 4 -2 1 -2 4 -6 4 -8 1 -5 2 -5 2 -7 2 -6 1 -7 6 -24 2 -9 1 -9 2 -9 4 -20 1 -10"/>
<path stroke="#A52A2A" d="M917 375l6 -30 2 -11 1 -10 6 -30 1 -10 2 -10 4 -18 2 -8 1 -9 2 -7 2 -8 2 -7 1 -6 4 -12 2 -4 2 -5 1 -3 4 -6 3 -3"/>
<path stroke="#F0E68C" d="M75 203l1 0 1 1 2 0 2 1 3 3 6 9 2 4 1 5 2 5 4 12 1 6 6 21 2 8 1 8 2 9 2 8 2 9 1 9 4 18 2 10 2 9 1 9 6 27 1 9 2 9 6 24 1 7 4 14 2 6 1 6 2 6 2 5 4 8 1 4 2 2 2 3 2 1 1 2 6 0 3 -3 6 -9 2 -4 1 -5 4 -10 2 -6 1 -7 4 -14 4 -16"/>
<path stroke="#F0E68C" d="M197 426l1 -9 2 -8 4 -18 1 -10 2 -9 2 -10 2 -9 2 -10 1 -9 2 -10 2 -9 2 -10 1 -9 2 -9 2 -8 2 -9 2 -8 1 -7 2 -8 2 -7 2 -6 1 -6 2 -6 2 -5 2 -4 2 -5 1 -3 2 -3 5 -5 2 -1 2 0 4 2 1 2 2 2 4 6 2 4 1 5 4 10 2 6 1 7 6 21 2 8 1 8"/>
<path stroke="#F0E68C" d="M287 277l2 9 2 8 2 9 1 9 4 18 2 10 2 9 1 9 6 27 1 9 2 8 2 9 4 16 1 7 4 14 2 6 1 6 2 6 2 5 4 8 1 3 4 6 2 1 1 2 6 0 3 -3 6 -9 2 -4 1 -5 2 -5 4 -12 1 -6 2 -7 2 -8 2 -7 2 -8 1 -9 2 -8 2 -9 2 -10 1 -9 2 -9 2 -10 2 -9 2 -10"/>
<path stroke="#F0E68C" d="M391 334l1 -10 4 -18 2 -10 1 -9 2 -9 2 -8 2 -9 2 -8 1 -7 2 -8 2 -7 2 -6 1 -6 2 -6 2 -5 4 -8 1 -4 2 -3 5 -5 2 -1 2 0 4 2 1 2 2 2 2 3 4 8 1 4 2 5 4 12 1 6 6 21 2 8 1 8 2 9 2 8 2 9 1 9 4 18 2 10 2 9 1 9 6 27 1 9 2 9 6 24"/>
<path stroke="#F0E68C" d="M496 418l1 7 4 14 2 6 1 6 2 6 2 5 4 8 1 4 2 2 2 3 2 1 1 2 6 0 3 -3 6 -9 2 -4 1 -5 4 -10 2 -7 1 -6 4 -14 4 -16 1 -9 2 -8 4 -18 1 -10 2 -9 2 -10 2 -9 2 -10 1 -9 2 -10 2 -9 2 -10 1 -9 2 -8 2 -9 4 -16 1 -8 6 -21 1 -6 6 -15"/>
<path stroke="#F0E68C" d="M599 195l2 -4 1 -4 2 -2 2 -3 3 -3 6 0 3 3 6 9 2 4 1 4 2 5 4 12 1 6 4 14 4 16 1 8 2 8 2 9 2 8 1 9 2 10 6 27 1 9 2 9 2 10 2 8 1 9 2 9 6 24 1 7 2 8 2 6 2 7 1 6 4 10 4 8 1 4 2 3 5 5 2 1 2 0 4 -2 1 -2 2 -2 2 -3 4 -8 1 -4"/>
<path stroke="#F0E68C" d="M716 453l2 -6 2 -5 2 -6 1 -7 4 -14 4 -16 1 -8 6 -27 1 -9 2 -10 2 -9 2 -10 2 -9 1 -10 2 -9 2 -10 2 -9 1 -9 4 -18 4 -16 1 -8 4 -14 2 -6 1 -6 2 -6 2 -5 4 -8 1 -4 2 -3 5 -5 2 -1 2 0 4 2 1 2 2 2 2 3 4 8 1 4 4 10 2 6 1 7 6 21"/>
<path stroke="#F0E68C" d="M818 235l2 8 1 8 2 9 2 8 2 9 1 9 6 27 2 10 1 9 6 27 1 9 2 8 2 9 4 16 1 7 4 14 2 6 1 6 6 15 2 4 1 3 4 6 2 1 1 1 2 1 2 0 4 -2 1 -2 2 -2 4 -6 2 -4 1 -5 2 -5 4 -12 1 -6 2 -7 2 -8 2 -7 2 -9 1 -8 6 -27 1 -9 2 -9 2 -10 2 -9"/>
<path stroke="#F0E68C" d="M923 318l2 -10 1 -9 2 -10 2 -9 2 -10 1 -9 2 -8 2 -9 4 -16 1 -8 6 -21 1 -6 6 -15 2 -4 1 -3 2 -3 5 -5"/>
<path stroke="#DDA0DD" d="M75 185l4 0 2 1 3 3 2 3 2 2 2 3 2 4 1 4 6 15 1 6 2 7 2 6 4 14 1 8 2 8 2 7 2 9 1 8 2 8 2 9 2 8 2 9 1 8 2 9 4 16 1 8 6 24 2 7 1 7 2 6 2 7 2 6 1 5 4 10 4 8 1 3 2 2 2 3 2 1 1 1 2 1 4 0 2 -1 1 -2 2 -2 4 -6 2 -4 1 -4 6 -15"/>
<path stroke="#DDA0DD" d="M188 425l1 -6 8 -28 1 -8 4 -16 2 -9 1 -8 4 -18 2 -8 2 -9 1 -9 4 -18 2 -8 1 -9 4 -16 2 -7 2 -8 1 -7 2 -7 4 -12 1 -6 4 -10 4 -8 1 -3 2 -3 5 -5 2 0 2 -1 4 2 1 2 4 4 2 4 2 3 1 4 6 15 1 6 2 6 6 21 1 8 2 7 2 8 2 9 1 8 2 8"/>
<path stroke="#DDA0DD" d="M296 293l2 9 2 8 2 9 1 8 2 9 4 16 1 8 6 24 2 7 1 7 2 6 2 7 2 5 1 6 4 10 2 4 2 3 1 4 2 2 2 3 2 1 1 1 2 1 2 0 4 -2 3 -3 4 -6 2 -4 1 -4 4 -10 2 -6 1 -6 2 -6 6 -21 1 -8 4 -16 2 -9 1 -8 6 -27 2 -8 1 -9 4 -18 2 -8 1 -8 2 -9"/>
<path stroke="#DDA0DD" d="M401 255l2 -8 2 -7 2 -8 1 -7 2 -7 4 -12 1 -6 4 -10 4 -8 1 -3 2 -3 5 -5 6 0 2 1 1 2 2 2 6 9 1 4 6 15 1 6 2 7 2 6 4 14 1 8 2 8 2 7 2 9 1 8 2 8 2 9 2 8 2 9 1 8 2 9 4 16 1 8 6 24 2 7 1 7 2 6 2 7 2 6 1 5 4 10 4 8 1 3 2 2"/>
<path stroke="#DDA0DD" d="M515 437l2 3 2 1 1 1 2 1 4 0 5 -5 4 -6 2 -4 1 -4 6 -15 1 -7 2 -6 6 -21 1 -8 4 -16 2 -9 1 -8 4 -18 2 -8 2 -9 1 -9 2 -9 2 -8 2 -9 1 -8 2 -9 2 -7 4 -16 1 -7 2 -7 4 -12 1 -6 2 -5 2 -4 2 -5 2 -3 1 -4 2 -2 2 -3 2 -1 1 -1 2 -1"/>
<path stroke="#DDA0DD" d="M611 163l4 0 5 5 4 6 2 4 1 4 2 4 2 5 2 6 1 6 4 12 2 7 2 8 1 7 6 24 1 8 2 8 2 9 2 8 2 9 1 8 2 9 2 8 2 9 1 8 2 8 2 7 2 8 2 7 1 7 2 7 4 12 1 5 4 10 4 8 1 3 2 3 5 5 6 0 2 -1 1 -2 2 -2 4 -6 2 -4 1 -4 6 -15 1 -6 2 -7 2 -6"/>
<path stroke="#DDA0DD" d="M727 382l2 -8 2 -7 1 -8 6 -24 1 -9 2 -9 2 -8 4 -18 1 -9 2 -8 4 -18 1 -8 6 -24 2 -7 1 -7 4 -14 2 -6 1 -5 4 -10 4 -8 1 -3 2 -3 5 -5 2 0 2 -1 4 2 1 2 4 4 2 3 2 4 1 4 6 15 1 6 2 6 6 21 1 7 6 24 1 9 4 16 2 9 2 8 1 9 2 8 2 9"/>
<path stroke="#DDA0DD" d="M841 321l2 8 1 8 4 16 4 14 1 7 2 7 4 12 1 6 2 5 2 4 2 5 2 3 1 3 2 3 5 5 2 1 2 0 4 -2 1 -2 4 -4 2 -4 2 -3 1 -4 4 -10 2 -6 1 -6 2 -6 4 -14 2 -8 1 -7 2 -8 2 -9 2 -8 1 -8 6 -27 2 -8 1 -9 4 -18 2 -8 1 -8 2 -9 2 -8 2 -7 2 -8"/>
<path stroke="#DDA0DD" d="M941 209l1 -7 2 -7 4 -12 1 -6 2 -5 2 -4 2 -5 2 -3 1 -4 7 -7"/>
<path stroke="#DA70D6" d="M75 168l4 0 4 2 1 2 4 4 2 3 2 4 1 3 2 5 2 4 2 5 1 6 2 5 2 6 2 7 2 6 1 7 4 14 2 8 1 8 2 7 6 24 1 7 6 24 1 7 8 28 1 6 6 18 1 5 2 4 2 5 2 4 2 3 1 3 2 3 2 2 2 1 1 1 2 1 2 0 2 -1 2 0 1 -2 4 -4 2 -3 2 -4 1 -3 2 -5 2 -4 2 -5"/>
<path stroke="#DA70D6" d="M188 389l1 -6 6 -18 2 -7 1 -7 2 -8 2 -7 2 -8 1 -8 8 -32 1 -8 6 -24 1 -7 2 -8 6 -21 1 -7 6 -18 1 -5 2 -5 4 -8 2 -3 1 -4 7 -7 6 0 2 1 5 5 2 3 2 4 1 3 2 5 2 4 2 5 1 5 4 12 2 7 2 6 1 7 4 14 2 8 1 7 6 24 2 7 1 8 4 16 2 7"/>
<path stroke="#DA70D6" d="M309 321l1 8 8 28 1 6 6 18 1 5 2 4 2 5 2 3 2 4 1 3 7 7 2 1 2 0 4 -2 5 -5 2 -3 2 -4 1 -4 2 -4 4 -10 1 -5 4 -12 2 -7 2 -6 1 -8 4 -14 2 -8 1 -8 8 -32 1 -8 6 -24 1 -8 8 -28 1 -7 6 -18 1 -5 2 -5 4 -8 2 -3 1 -3 2 -3 5 -5 6 0"/>
<path stroke="#DA70D6" d="M437 156l2 1 3 3 2 3 2 2 2 4 1 3 2 5 2 4 2 5 1 5 4 12 2 7 2 6 1 7 4 14 2 8 1 7 6 24 2 7 1 8 4 16 2 7 1 8 8 28 1 6 6 18 1 5 2 4 2 5 2 3 2 4 1 3 7 7 2 1 2 0 4 -2 3 -3 2 -3 2 -2 2 -4 1 -4 2 -4 4 -10 1 -5 4 -12 2 -7 2 -6"/>
<path stroke="#DA70D6" d="M553 344l1 -8 4 -14 2 -8 1 -8 8 -32 1 -8 6 -24 1 -7 2 -8 6 -21 1 -7 6 -18 1 -5 2 -5 4 -8 2 -3 1 -3 2 -3 5 -5 6 0 2 1 3 3 6 9 1 4 4 8 2 5 1 6 2 5 2 6 2 7 2 6 1 7 4 14 2 8 1 7 6 24 2 7 1 8 4 16 2 7 1 8 8 28 1 6 6 18 1 5"/>
<path stroke="#DA70D6" d="M682 372l2 4 2 5 2 3 2 4 1 3 7 7 2 1 2 0 4 -2 5 -5 2 -3 2 -4 1 -4 2 -4 4 -10 1 -5 4 -12 2 -7 2 -6 1 -7 2 -8 2 -7 2 -8 1 -8 8 -32 1 -8 6 -24 1 -7 2 -8 6 -21 1 -7 4 -12 2 -5 1 -6 2 -4 2 -5 2 -4 2 -3 1 -3 2 -3 2 -2 2 -1"/>
<path stroke="#DA70D6" d="M786 144l1 -1 2 -1 4 0 2 1 1 2 4 4 4 6 1 4 2 4 4 10 1 5 8 24 1 7 2 7 2 8 2 7 1 8 2 7 6 24 1 8 2 7 4 16 1 7 8 28 1 6 2 7 2 5 2 6 1 5 2 5 4 8 2 3 1 3 2 3 2 2 2 1 1 1 2 1 2 0 2 -1 2 0 1 -2 4 -4 2 -3 2 -4 1 -3 2 -5 2 -4"/>
<path stroke="#DA70D6" d="M898 366l2 -5 1 -6 6 -18 2 -7 1 -7 2 -8 2 -7 2 -8 1 -8 2 -7 4 -16 2 -9 1 -8 4 -16 2 -7 1 -8 2 -8 6 -21 1 -6 2 -7 2 -5 2 -6 1 -5 2 -5 6 -12 1 -3 7 -7"/>
<path stroke="#EE82EE" d="M75 153l4 0 4 2 5 5 4 6 1 4 2 3 2 4 2 5 1 5 4 10 4 12 1 6 4 14 2 6 1 7 6 21 2 8 1 7 6 21 1 7 2 6 2 7 4 12 1 6 2 6 4 10 1 5 4 8 2 3 3 6 2 3 2 2 2 1 1 1 2 1 2 0 2 -1 2 0 1 -2 2 -1 2 -3 2 -2 2 -3 1 -4 2 -3 2 -5 2 -4 1 -5"/>
<path stroke="#EE82EE" d="M189 350l2 -6 2 -5 4 -12 1 -7 2 -6 4 -14 1 -7 2 -7 2 -8 4 -14 1 -8 6 -21 1 -7 6 -21 2 -6 1 -6 2 -6 4 -10 1 -5 6 -12 2 -3 1 -3 2 -3 2 -1 3 -3 2 -1 2 0 2 1 2 0 1 2 2 1 2 2 4 6 1 3 4 8 2 5 1 5 4 10 4 12 1 6 2 7 2 6 2 7"/>
<path stroke="#EE82EE" d="M293 229l1 7 8 28 1 7 6 21 1 7 2 7 2 6 2 7 2 6 1 6 2 5 2 6 2 5 1 4 2 5 2 4 4 6 1 3 7 7 6 0 2 -1 7 -7 2 -4 1 -3 4 -8 2 -5 1 -5 2 -5 2 -6 2 -5 2 -7 1 -6 2 -7 2 -6 2 -7 1 -7 2 -8 4 -14 2 -8 1 -7 2 -7 2 -8 2 -7 1 -7 2 -7"/>
<path stroke="#EE82EE" d="M401 214l2 -6 2 -7 2 -6 1 -6 2 -6 4 -10 1 -5 2 -5 2 -4 2 -3 3 -6 2 -3 2 -2 2 -1 1 -1 2 -1 4 0 2 1 5 5 4 6 1 3 6 12 1 5 2 5 6 18 1 6 2 6 4 14 1 7 8 28 1 7 6 21 1 7 2 7 4 12 2 7 1 5 2 6 4 10 1 5 6 12 2 3 1 3 4 4 2 1 1 1"/>
<path stroke="#EE82EE" d="M520 369l2 1 4 0 2 -1 5 -5 4 -6 1 -3 4 -8 2 -5 1 -5 2 -5 6 -18 1 -6 6 -21 1 -7 4 -14 2 -8 2 -7 1 -7 2 -8 4 -14 1 -7 4 -14 4 -12 1 -6 4 -12 2 -5 1 -4 2 -5 2 -4 2 -3 3 -6 2 -3 2 -2 2 -1 1 -1 2 -1 4 0 2 1 5 5 4 6 1 3 6 12"/>
<path stroke="#EE82EE" d="M633 163l1 5 2 5 4 12 2 5 1 7 2 6 4 14 1 6 4 14 2 8 2 7 1 7 6 21 1 7 2 6 2 7 4 12 1 6 2 6 4 10 1 5 6 12 2 3 1 3 4 4 2 1 1 1 2 1 4 0 2 -1 5 -5 4 -6 1 -3 2 -4 2 -5 2 -4 1 -5 2 -5 6 -18 1 -6 6 -21 1 -7 4 -14 2 -8 2 -7 1 -7"/>
<path stroke="#EE82EE" d="M748 238l2 -8 4 -14 1 -7 4 -14 4 -12 1 -6 4 -12 2 -5 1 -4 2 -5 2 -4 2 -3 2 -4 1 -3 4 -4 2 -1 1 -1 2 -1 4 0 2 1 5 5 4 6 1 3 6 12 1 5 2 5 2 6 2 5 2 6 1 7 2 6 2 7 2 6 1 7 4 14 2 8 2 7 1 7 6 21 1 7 2 6 2 7 4 12 1 6 2 6 4 10"/>
<path stroke="#EE82EE" d="M859 328l1 5 6 12 2 3 1 2 2 3 2 2 2 1 1 1 2 1 2 0 2 -1 2 0 1 -2 2 -1 2 -2 4 -6 1 -4 2 -3 2 -5 2 -4 1 -5 2 -6 2 -5 4 -12 1 -7 2 -6 4 -14 1 -7 4 -14 2 -8 2 -7 1 -7 2 -8 4 -14 1 -7 4 -14 4 -12 1 -6 4 -12 2 -5 1 -4 2 -5"/>
<path stroke="#EE82EE" d="M951 145l2 -4 2 -3 3 -6 2 -3 2 -2 2 -1 1 -1"/>
<path stroke="#B03060" d="M75 140l4 0 4 2 1 1 2 1 2 2 2 3 2 2 1 4 2 3 4 8 1 4 8 20 1 6 6 18 1 6 2 6 2 7 2 6 2 7 1 6 2 6 2 7 2 6 1 6 8 24 1 5 4 10 2 4 1 5 2 4 2 3 2 4 2 2 1 3 4 4 2 1 1 1 2 1 4 0 2 -1 7 -7 2 -3 1 -3 2 -3 4 -8 1 -4 6 -15 2 -6 1 -6"/>
<path stroke="#B03060" d="M198 292l6 -18 1 -7 2 -6 2 -7 2 -6 2 -7 1 -7 2 -6 2 -7 2 -6 1 -7 8 -24 1 -5 6 -15 1 -4 4 -8 4 -6 1 -3 4 -4 2 -1 1 -1 2 -1 4 0 2 1 1 1 2 1 4 4 2 3 1 3 2 3 4 8 1 4 6 15 2 6 1 5 6 18 1 6 2 7 2 6 2 7 2 6 1 6 2 7 2 6 2 7"/>
<path stroke="#B03060" d="M309 266l1 6 4 12 2 5 2 6 1 5 6 15 1 4 4 8 4 6 1 2 2 3 2 1 3 3 6 0 2 -1 1 -1 2 -1 4 -4 2 -3 1 -3 2 -4 2 -3 2 -5 1 -4 6 -15 2 -6 1 -5 2 -6 2 -7 2 -6 1 -6 2 -7 2 -6 4 -14 1 -6 2 -7 2 -6 2 -7 1 -6 2 -6 2 -7 2 -5 2 -6 1 -6"/>
<path stroke="#B03060" d="M408 173l6 -15 1 -4 4 -8 4 -6 1 -3 4 -4 2 -1 1 -1 2 -1 2 0 2 1 2 0 7 7 2 3 1 3 2 3 4 8 1 4 8 20 1 6 2 5 2 6 2 7 1 6 2 6 2 7 4 12 1 7 2 6 2 7 2 6 1 6 6 18 2 5 1 6 4 10 2 4 1 5 2 3 2 4 4 6 1 3 4 4 2 1 1 1 2 1 2 0 2 -1"/>
<path stroke="#B03060" d="M526 336l2 0 7 -7 2 -3 1 -3 2 -3 4 -8 1 -5 2 -4 2 -5 2 -6 2 -5 1 -6 6 -18 1 -7 2 -6 2 -7 2 -6 2 -7 1 -7 2 -6 2 -7 2 -6 1 -7 8 -24 1 -5 6 -15 1 -4 4 -8 4 -6 1 -3 4 -4 2 -1 1 -1 2 -1 4 0 2 1 1 1 2 1 4 4 2 3 1 3 2 3 4 8"/>
<path stroke="#B03060" d="M633 149l1 5 2 4 4 10 2 6 1 5 6 18 1 6 2 7 4 12 2 7 1 6 2 7 4 12 1 7 4 12 2 5 2 6 1 5 6 15 1 4 4 8 4 6 1 2 7 7 6 0 2 -1 1 -1 2 -1 2 -2 2 -3 2 -2 1 -3 6 -12 1 -4 6 -15 2 -6 1 -5 2 -6 2 -7 2 -6 1 -6 2 -7 2 -6 4 -14 1 -6"/>
<path stroke="#B03060" d="M748 218l2 -7 2 -6 2 -7 1 -6 2 -6 2 -7 2 -5 2 -6 1 -6 4 -10 2 -4 1 -5 2 -4 2 -3 2 -4 2 -3 1 -2 2 -3 2 -1 3 -3 8 0 1 2 2 1 4 4 2 3 1 3 2 3 4 8 1 4 8 20 1 6 6 18 1 6 2 6 2 7 2 6 2 7 1 6 2 6 2 7 2 6 1 6 8 24 1 5 4 10 2 4"/>
<path stroke="#B03060" d="M859 298l1 5 2 4 6 9 1 3 4 4 2 1 1 1 2 1 4 0 2 -1 7 -7 2 -3 1 -3 2 -3 4 -8 1 -5 2 -4 2 -5 2 -6 2 -5 1 -6 6 -18 1 -7 2 -6 2 -7 2 -6 2 -7 1 -7 2 -6 2 -7 2 -6 1 -7 6 -18 2 -5 1 -6 6 -15 1 -4 4 -8 4 -6 1 -3 4 -4 2 -1 1 -1"/>
<path stroke="#40E0D0" d="M75 128l1 0 1 1 4 0 2 1 3 3 2 1 2 3 2 2 1 3 4 6 2 4 1 3 2 5 2 4 2 5 2 4 1 5 2 6 4 10 1 6 2 6 2 5 4 12 1 6 2 6 2 5 2 6 1 6 6 15 2 6 1 4 2 5 4 8 1 4 2 4 6 9 1 2 4 4 2 1 1 1 2 0 2 1 2 -1 2 0 1 -1 2 -1 6 -6 1 -3 2 -3 2 -4"/>
<path stroke="#40E0D0" d="M186 297l2 -3 1 -4 2 -4 6 -15 1 -5 4 -10 2 -6 1 -6 2 -6 2 -5 4 -12 1 -6 6 -18 1 -6 2 -5 2 -6 4 -10 1 -5 2 -5 2 -4 2 -5 1 -4 2 -3 2 -4 4 -6 1 -2 4 -4 2 -1 1 -1 2 0 2 -1 2 0 2 1 1 1 2 1 6 6 1 3 4 6 2 4 1 3 2 5 2 4 2 5"/>
<path stroke="#40E0D0" d="M284 164l2 4 1 5 2 6 4 10 1 6 2 6 2 5 4 12 1 6 2 6 2 5 2 6 1 6 4 10 2 6 2 5 1 4 2 5 4 8 1 4 2 4 6 9 1 2 4 4 2 1 1 1 2 0 2 1 2 -1 2 0 1 -1 2 -1 6 -6 1 -3 2 -3 2 -4 2 -3 1 -4 2 -4 4 -10 2 -4 1 -6 4 -10 2 -6 1 -6 2 -6 2 -5"/>
<path stroke="#40E0D0" d="M387 228l4 -12 1 -6 6 -18 1 -6 2 -5 2 -6 4 -10 1 -5 2 -5 2 -4 2 -5 1 -4 2 -3 2 -4 2 -3 2 -2 1 -3 2 -2 2 -1 3 -3 2 0 2 -1 2 1 2 0 1 1 2 1 6 6 1 3 4 6 2 4 1 4 4 8 4 10 1 5 4 10 2 6 1 5 4 12 2 5 2 6 1 6 2 6 2 5 2 6 1 6"/>
<path stroke="#40E0D0" d="M488 242l4 10 2 6 2 5 1 4 2 5 2 4 2 5 1 3 2 4 6 9 1 2 4 4 2 1 1 1 2 1 4 0 2 -1 1 -1 2 -1 6 -6 1 -3 4 -6 2 -4 1 -4 2 -4 2 -5 2 -4 2 -5 1 -6 4 -10 2 -6 1 -6 2 -5 6 -18 1 -6 6 -18 1 -6 2 -5 2 -6 4 -10 1 -5 2 -5 4 -8 1 -4"/>
<path stroke="#40E0D0" d="M593 138l2 -4 6 -9 1 -3 2 -2 2 -1 3 -3 8 0 3 3 2 1 4 4 1 3 4 6 2 4 1 4 4 8 4 10 1 5 4 10 2 6 1 5 4 12 2 5 2 6 1 6 4 12 2 5 1 6 2 5 2 6 4 10 1 5 2 4 2 5 2 4 1 4 8 12 1 2 4 4 2 1 1 1 2 1 4 0 2 -1 1 -1 2 -1 6 -6 1 -3 4 -6"/>
<path stroke="#40E0D0" d="M720 283l2 -4 1 -4 2 -4 2 -5 2 -4 2 -5 1 -5 2 -6 2 -5 2 -6 1 -5 8 -24 1 -6 6 -18 1 -5 2 -6 2 -5 2 -6 2 -5 1 -5 2 -5 4 -8 1 -4 2 -4 6 -9 1 -2 4 -4 2 -1 1 -1 2 -1 4 0 2 1 1 1 4 2 2 2 2 3 1 2 2 3 2 4 2 3 1 4 2 4 2 5 2 4"/>
<path stroke="#40E0D0" d="M818 149l2 5 1 5 4 10 2 6 1 5 6 18 2 5 1 6 4 12 2 5 1 6 2 5 2 6 4 10 1 5 2 4 2 5 2 4 1 4 2 3 2 4 2 3 2 2 1 3 2 2 4 2 1 1 2 1 4 0 2 -1 1 -1 2 -1 6 -6 1 -3 4 -6 2 -4 1 -4 4 -8 4 -10 1 -5 2 -5 4 -12 1 -5 8 -24 1 -6 4 -12"/>
<path stroke="#40E0D0" d="M930 183l2 -5 1 -6 2 -6 2 -5 2 -6 2 -5 1 -5 2 -4 2 -5 2 -4 1 -4 2 -4 6 -9 1 -2 4 -4 2 -1 1 -1"/>
<path stroke="#A0522D" d="M75 120l1 -1M76 120l0 -1M76 120l5 0 2 1 1 1 2 1 6 6 1 2 2 3 2 2 2 4 1 3 8 16 1 4 6 15 1 4 2 6 6 15 1 5 6 15 1 5 6 15 2 4 1 4 6 12 1 4 4 6 2 2 2 3 1 2 2 2 4 2 1 1 2 1 6 0 1 -1 2 -1 6 -6 1 -2 6 -9 1 -3 8 -16 1 -5 2 -5"/>
<path stroke="#A0522D" d="M200 238l2 -4 2 -5 1 -5 2 -6 6 -15 1 -6 6 -15 1 -6 2 -5 2 -4 4 -10 1 -4 2 -4 2 -5 2 -3 1 -4 6 -9 2 -2 1 -3 2 -2 4 -2 1 -1 2 -1 6 0 1 1 2 1 2 2 2 1 2 2 1 3 2 2 4 6 1 4 2 3 4 8 2 5 1 4 2 5 2 4 2 5 1 5 6 15 2 6 1 5 6 15"/>
<path stroke="#A0522D" d="M309 219l1 5 4 10 2 4 2 5 1 4 6 12 1 3 8 12 1 2 2 1 2 2 2 1 1 1 2 1 4 0 2 -1 1 -1 4 -2 4 -4 1 -2 6 -9 1 -4 2 -3 4 -8 2 -5 1 -4 6 -15 1 -5 6 -15 2 -6 1 -5 2 -5 2 -6 2 -5 1 -5 6 -15 2 -4 1 -5 6 -12 1 -3 2 -3 2 -4 2 -2"/>
<path stroke="#A0522D" d="M421 124l2 -3 1 -2 2 -2 2 -1 2 -2 1 0 2 -1 6 0 1 1 4 2 4 4 1 2 6 9 1 4 2 3 6 12 1 5 2 4 4 10 1 5 8 20 1 5 2 6 4 10 1 5 2 5 2 4 2 5 2 4 1 5 4 8 2 3 1 4 6 9 2 2 1 2 4 4 2 1 1 1 8 0 1 -1 4 -2 4 -4 1 -3 2 -2 4 -6 1 -4 8 -16"/>
<path stroke="#A0522D" d="M553 239l1 -5 2 -4 4 -10 1 -5 4 -10 2 -6 2 -5 1 -5 2 -6 4 -10 1 -5 6 -15 2 -4 1 -5 6 -12 1 -3 2 -4 2 -3 2 -2 2 -3 1 -2 4 -4 2 -1 1 -1 8 0 1 1 4 2 4 4 1 2 6 9 1 3 8 16 1 5 2 4 4 10 1 5 8 20 1 5 6 15 1 5 6 15 2 4 1 4 2 5"/>
<path stroke="#A0522D" d="M677 243l2 3 2 4 1 4 6 9 2 2 1 2 2 2 2 1 2 2 1 0 2 1 6 0 1 -1 2 -1 2 -2 2 -1 2 -3 1 -2 2 -3 2 -2 2 -4 1 -3 8 -16 1 -5 2 -5 2 -4 2 -5 1 -5 2 -6 6 -15 1 -6 6 -15 1 -5 8 -20 1 -4 6 -12 1 -4 6 -9 2 -2 1 -2 4 -4 2 -1 1 -1"/>
<path stroke="#A0522D" d="M787 105l2 0 2 -1 2 0 2 1 1 1 4 2 4 4 1 2 6 9 1 3 8 16 1 4 4 10 2 4 1 5 2 5 2 6 4 10 1 5 6 15 1 5 4 10 2 4 2 5 1 4 6 12 1 3 2 4 2 3 2 2 2 3 1 2 2 2 4 2 1 1 2 1 4 0 2 -1 1 0 2 -2 2 -1 4 -4 1 -2 6 -9 1 -3 6 -12 2 -5 1 -4"/>
<path stroke="#A0522D" d="M910 226l6 -15 1 -5 8 -20 1 -6 6 -15 1 -6 2 -5 2 -4 4 -10 1 -4 6 -12 1 -4 6 -9 2 -2 1 -2 4 -4 2 -1 1 -1"/>
<path stroke="#FF7F50" d="M75 113l4 0 2 1 2 0 1 1 2 1 2 2 2 1 2 2 1 2 2 2 2 3 2 2 1 3 2 4 2 3 2 4 2 3 1 4 4 8 2 5 1 4 2 4 2 5 2 4 2 5 1 4 2 5 2 4 2 5 1 4 2 4 2 5 4 8 1 4 2 3 2 4 2 3 1 3 4 6 4 4 1 2 2 2 4 2 1 1 2 0 2 1 2 0 2 -1 1 0 4 -2 4 -4 1 -2"/>
<path stroke="#FF7F50" d="M182 251l2 -2 2 -3 2 -2 1 -3 2 -3 4 -8 2 -3 1 -4 2 -4 2 -5 2 -4 1 -4 2 -5 2 -4 4 -10 1 -4 4 -10 2 -4 1 -5 4 -8 2 -5 2 -4 1 -4 2 -3 2 -4 2 -3 1 -4 2 -2 4 -6 2 -2 1 -2 2 -2 4 -2 1 -1 2 -1 6 0 1 1 4 2 2 2 2 1 1 2 2 3 2 2"/>
<path stroke="#FF7F50" d="M275 124l2 3 1 3 4 6 4 8 1 3 2 4 2 5 2 4 1 4 2 5 2 4 2 5 2 4 1 5 2 4 2 5 2 4 1 4 2 5 6 12 1 4 2 3 2 4 2 3 1 3 4 6 4 4 1 2 2 2 4 2 1 1 2 1 6 0 1 -1 4 -2 2 -2 2 -1 1 -2 2 -3 2 -2 2 -3 1 -3 2 -3 2 -4 2 -3 2 -4 1 -4 4 -8"/>
<path stroke="#FF7F50" d="M380 211l2 -5 1 -4 2 -5 2 -4 2 -5 2 -4 1 -5 2 -5 2 -4 2 -5 1 -4 2 -5 6 -12 1 -4 4 -8 2 -3 1 -3 4 -6 2 -2 2 -3 1 -2 2 -1 2 -2 2 -1 1 -1 2 0 2 -1 2 0 2 1 1 0 4 2 4 4 1 2 4 4 2 3 1 3 2 3 2 4 2 3 2 4 1 4 6 12 1 4 2 5 2 4"/>
<path stroke="#FF7F50" d="M476 169l2 5 2 4 1 5 2 4 2 5 2 4 1 5 8 16 1 4 2 4 4 6 1 4 2 2 4 6 2 2 1 2 2 1 2 2 2 1 1 0 2 1 6 0 1 -1 6 -3 2 -2 1 -2 2 -2 4 -6 1 -3 4 -6 4 -8 1 -4 6 -12 1 -5 2 -4 2 -5 2 -4 2 -5 1 -5 2 -4 4 -10 1 -4 2 -5 6 -12 1 -4"/>
<path stroke="#FF7F50" d="M586 136l2 -4 2 -3 2 -4 1 -3 4 -6 4 -4 1 -2 2 -2 2 -1 2 -2 1 0 2 -1 6 0 1 1 6 3 2 2 1 2 2 2 2 3 2 2 1 3 2 4 4 6 2 4 1 4 6 12 1 5 2 4 2 5 2 4 2 5 1 4 2 5 2 4 2 5 1 4 2 4 2 5 4 8 1 3 4 8 2 3 1 3 2 3 2 2 2 3 2 2 1 2 2 2"/>
<path stroke="#FF7F50" d="M693 245l4 2 1 1 2 0 2 1 2 -1 3 0 2 -1 2 -2 2 -1 2 -2 1 -2 2 -2 2 -3 2 -2 1 -3 2 -4 2 -3 2 -4 2 -3 1 -4 2 -5 4 -8 1 -4 4 -10 2 -4 2 -5 1 -4 4 -10 2 -4 1 -5 4 -8 2 -5 2 -4 1 -4 2 -3 2 -4 2 -3 1 -4 2 -3 2 -2 2 -3 2 -2"/>
<path stroke="#FF7F50" d="M779 108l1 -2 2 -2 4 -2 1 -1 2 -1 4 0 2 1 1 0 4 2 2 2 2 1 1 2 2 3 2 2 2 3 1 3 4 6 4 8 1 3 2 4 2 5 2 4 1 4 2 4 2 5 2 4 2 5 1 5 2 4 2 5 2 4 1 4 2 5 6 12 1 4 2 3 2 4 2 3 1 3 4 6 4 4 1 2 2 2 4 2 1 1 2 1 4 0 2 -1 1 0 4 -2"/>
<path stroke="#FF7F50" d="M889 242l4 -4 1 -2 4 -4 2 -3 1 -3 2 -3 2 -4 2 -3 2 -4 1 -4 4 -8 2 -5 1 -4 2 -5 2 -4 2 -5 2 -4 1 -5 2 -5 2 -4 2 -5 1 -4 2 -5 6 -12 1 -4 4 -8 2 -3 1 -3 4 -6 2 -2 2 -3 1 -2 2 -1 2 -2 2 -1 1 0"/>
<path stroke="cyan" d="M75 110l6 0 2 1 1 0 4 2 2 2 2 1 1 2 4 4 2 3 1 2 8 12 1 3 2 4 2 3 2 4 1 4 2 4 2 3 4 8 1 4 6 12 1 4 2 3 4 8 2 3 1 3 2 4 4 6 1 2 2 3 6 6 1 2 2 1 2 2 2 1 1 0 2 1 6 0 1 -1 2 0 4 -2 2 -2 1 -2 6 -6 1 -3 2 -2 4 -6 2 -4 1 -3 2 -4"/>
<path stroke="cyan" d="M200 202l2 -3 2 -4 1 -4 8 -16 1 -4 6 -12 1 -4 2 -3 4 -8 2 -3 1 -4 6 -9 1 -3 2 -3 6 -6 1 -2 2 -2 4 -2 1 -1 2 0 2 -1 2 0 2 1 1 0 8 4 1 2 6 6 1 3 2 3 2 2 2 4 2 3 1 3 2 4 2 3 2 4 1 4 2 3 6 12 1 4 6 12 1 4 2 3 2 4 2 3 2 4 1 3"/>
<path stroke="cyan" d="M319 206l2 3 2 4 2 2 1 3 2 3 6 6 1 2 6 3 1 1 2 1 6 0 1 -1 2 0 2 -1 2 -2 2 -1 1 -2 6 -6 1 -3 8 -12 1 -3 2 -4 2 -3 2 -4 1 -4 8 -16 1 -4 6 -12 1 -4 2 -4 2 -3 4 -8 1 -3 6 -9 1 -3 2 -3 2 -2 2 -3 2 -1 1 -2 2 -2 4 -2 1 -1 2 0"/>
<path stroke="cyan" d="M433 106l2 -1 4 0 1 1 8 4 1 2 6 6 1 3 2 2 4 6 2 4 1 3 2 3 4 8 1 3 8 16 1 4 6 12 1 3 4 8 2 3 2 4 1 3 6 9 1 3 2 3 6 6 1 2 6 3 1 1 2 1 6 0 1 -1 8 -4 1 -2 6 -6 1 -3 8 -12 1 -3 4 -8 2 -3 1 -4 8 -16 1 -4 6 -12 1 -4 4 -8 2 -3"/>
<path stroke="cyan" d="M583 138l2 -4 1 -3 2 -3 2 -4 2 -3 1 -2 2 -3 2 -2 2 -3 5 -5 4 -2 1 -1 2 -1 6 0 1 1 2 0 2 1 2 2 2 1 1 2 6 6 1 3 2 2 6 9 1 4 2 3 2 4 2 3 1 4 8 16 1 4 2 4 2 3 2 4 1 4 4 8 2 3 2 4 1 3 6 9 1 3 2 2 2 3 7 7 4 2 1 1 2 0 2 1 2 0"/>
<path stroke="cyan" d="M704 228l2 -1 1 0 6 -3 7 -7 2 -3 1 -2 8 -12 1 -4 2 -3 2 -4 2 -3 1 -4 8 -16 1 -4 6 -12 1 -4 4 -8 2 -3 2 -4 1 -3 2 -4 4 -6 1 -3 2 -2 2 -3 4 -4 1 -2 6 -3 1 -1 2 -1 6 0 1 1 2 0 2 1 2 2 2 1 1 2 6 6 1 2 8 12 1 4 2 3 2 4 2 3 1 4"/>
<path stroke="cyan" d="M828 144l8 16 1 4 2 3 4 8 1 4 2 4 2 3 2 4 2 3 1 4 6 9 1 3 2 2 2 3 7 7 4 2 1 1 2 0 2 1 2 0 2 -1 1 0 6 -3 7 -7 2 -3 1 -2 8 -12 1 -4 2 -3 4 -8 1 -3 8 -16 1 -4 6 -12 1 -4 4 -8 2 -3 2 -4 1 -3 2 -4 4 -6 1 -3 2 -2 2 -3 4 -4 1 -2"/>
<path stroke="cyan" d="M958 101l6 -3 1 -1"/>
<path stroke="magenta" d="M75 110l4 0 2 1 2 0 1 1 2 0 4 2 9 9 1 2 4 4 4 6 1 3 6 9 1 3 4 6 2 4 2 3 1 3 2 4 2 3 2 4 1 3 8 12 1 3 2 3 2 2 2 3 1 2 2 3 2 2 2 1 2 2 1 2 6 3 1 1 4 0 2 1 2 -1 1 0 2 -1 2 0 2 -1 5 -5 2 -1 2 -2 1 -2 2 -3 2 -2 4 -6 1 -2"/>
<path stroke="magenta" d="M198 194l4 -6 2 -4 1 -3 2 -3 2 -4 4 -6 1 -4 2 -3 2 -4 2 -3 1 -3 2 -4 6 -9 1 -3 4 -6 2 -2 1 -3 11 -11 4 -2 1 -1 2 0 2 -1 2 0 2 1 3 0 6 3 1 2 2 1 4 4 1 2 2 2 2 3 2 2 2 3 1 3 6 9 1 3 2 3 2 4 4 6 1 4 2 3 2 4 2 3 1 3 4 6"/>
<path stroke="magenta" d="M314 183l2 4 2 3 1 2 4 6 2 2 1 3 6 6 2 1 1 2 6 3 1 1 2 1 6 0 1 -1 2 0 6 -3 1 -2 2 -1 4 -4 1 -2 2 -2 2 -3 2 -2 2 -3 1 -3 6 -9 1 -4 4 -6 2 -4 2 -3 1 -3 2 -4 2 -3 2 -4 1 -3 2 -3 2 -4 4 -6 1 -3 2 -3 2 -2 2 -3 1 -2 2 -3 7 -7"/>
<path stroke="magenta" d="M424 112l2 -1 2 -2 2 -1 1 0 2 -1 7 0 8 4 3 3 2 1 2 2 1 2 2 3 2 2 2 3 2 2 1 3 6 9 1 4 6 9 2 4 1 3 2 4 4 6 1 3 2 4 6 9 1 3 2 3 2 2 2 3 1 2 11 11 4 2 1 0 2 1 7 0 8 -4 7 -7 1 -2 2 -2 2 -3 2 -2 2 -3 1 -3 6 -9 1 -3 2 -4 4 -6"/>
<path stroke="magenta" d="M567 166l2 -4 1 -3 2 -4 4 -6 1 -4 6 -9 3 -6 6 -9 1 -2 8 -8 1 -2 6 -3 1 -1 2 0 2 -1 4 0 1 1 2 0 6 3 7 7 1 2 2 2 2 3 2 2 2 3 1 3 6 9 1 3 4 6 2 4 2 3 1 3 2 4 2 3 2 4 1 3 8 12 1 3 2 3 2 2 2 3 1 2 2 3 2 2 2 1 2 2 1 2 6 3"/>
<path stroke="magenta" d="M697 210l1 1 4 0 2 1 2 -1 1 0 2 -1 2 0 2 -1 5 -5 2 -1 2 -2 1 -2 2 -3 2 -2 4 -6 1 -2 4 -6 2 -4 1 -3 2 -3 2 -4 4 -6 1 -4 2 -3 2 -4 2 -3 1 -3 2 -4 6 -9 1 -3 4 -6 2 -2 1 -3 11 -11 4 -2 1 -1 4 0 2 -1 2 1 1 0 2 1 2 0 4 2 1 2"/>
<path stroke="magenta" d="M805 107l2 1 4 4 1 2 2 2 2 3 2 2 2 3 1 3 6 9 1 3 2 4 6 9 1 4 2 3 2 4 2 3 1 3 2 3 2 4 4 6 1 2 4 6 2 2 1 3 9 9 6 3 1 1 2 1 6 0 1 -1 2 0 6 -3 1 -2 2 -1 4 -4 1 -2 2 -2 2 -3 2 -2 2 -3 1 -3 6 -9 1 -3 2 -4 2 -3 2 -4 2 -3 1 -3"/>
<path stroke="magenta" d="M926 154l2 -4 2 -3 2 -4 1 -3 2 -3 2 -4 4 -6 1 -3 2 -3 2 -2 2 -3 1 -2 2 -3 4 -4 2 -1 1 -2 6 -3 1 -1"/>
<path stroke="#666" d="M75 116l6 0 2 1 1 0 2 1 2 0 4 2 1 2 4 2 2 2 1 2 8 8 1 2 2 3 2 2 2 3 1 3 2 2 6 9 1 3 2 2 4 6 1 3 2 2 4 6 2 2 1 3 6 6 1 2 6 6 2 1 3 3 2 1 2 0 1 1 2 1 7 0 2 -1 2 0 4 -2 3 -3 2 -1 9 -9 2 -3 1 -2 2 -2 4 -6 1 -2 8 -12 1 -2 6 -9"/>
<path stroke="#666" d="M220 154l1 -3 2 -3 2 -2 4 -6 1 -2 2 -3 4 -4 1 -2 6 -6 2 -1 1 -2 6 -3 1 0 2 -1 9 0 6 3 1 1 4 2 2 2 1 2 8 8 1 2 2 3 2 2 2 3 1 2 8 12 1 2 6 9 1 3 2 2 4 6 2 2 1 2 2 3 4 4 1 2 6 6 2 1 1 1 6 3 1 1 2 0 2 1 4 0 1 -1 2 0 2 -1 2 0"/>
<path stroke="#666" d="M357 204l2 -1 3 -3 2 -1 2 -2 1 -2 2 -1 2 -2 2 -3 2 -2 1 -2 2 -3 2 -2 2 -3 1 -3 2 -2 6 -9 1 -3 2 -3 2 -2 2 -3 1 -3 4 -6 2 -2 2 -3 1 -2 2 -3 4 -4 1 -2 6 -6 2 -1 1 -2 6 -3 1 -1 4 0 2 -1 2 0 1 1 2 0 2 1 2 0 2 1 3 3 2 1 2 2"/>
<path stroke="#666" d="M455 122l1 2 2 1 4 4 2 3 1 2 2 3 2 2 2 3 1 2 6 9 2 2 1 3 6 9 1 2 4 6 2 2 2 3 1 2 2 3 4 4 1 2 4 4 2 1 3 3 6 3 1 1 4 0 2 1 2 -1 3 0 6 -3 1 -1 4 -2 2 -2 1 -2 8 -8 1 -2 2 -3 2 -2 2 -3 1 -3 2 -2 6 -9 1 -3 4 -6 2 -2 1 -3 4 -6"/>
<path stroke="#666" d="M581 141l2 -2 2 -3 1 -3 4 -4 2 -3 1 -2 2 -2 2 -1 5 -5 6 -3 1 -1 2 0 2 -1 4 0 1 1 2 0 2 1 2 0 2 1 3 3 2 1 9 9 2 3 1 2 2 2 2 3 2 2 1 3 4 6 2 2 2 3 1 3 4 6 2 2 1 3 4 6 2 2 2 3 1 2 2 2 2 3 2 2 1 2 4 4 2 1 3 3 6 3 1 1 11 0 6 -3"/>
<path stroke="#666" d="M715 198l1 -1 2 -1 2 -2 2 -1 1 -2 8 -8 1 -3 2 -2 2 -3 2 -2 1 -3 2 -3 2 -2 4 -6 1 -3 6 -9 1 -2 6 -9 2 -2 1 -3 2 -2 2 -3 2 -2 1 -2 4 -4 2 -1 3 -3 6 -3 1 -1 2 0 2 -1 5 0 2 1 2 0 4 2 1 1 2 1 2 2 2 1 1 2 8 8 1 3 2 2 2 3 2 2"/>
<path stroke="#666" d="M827 137l1 3 2 3 2 2 4 6 1 3 2 3 2 2 2 3 1 3 2 3 2 2 4 6 1 2 2 2 2 3 2 2 1 2 2 2 2 1 2 2 2 1 1 2 6 3 1 0 2 1 7 0 2 -1 2 0 4 -2 1 -1 2 -1 2 -2 2 -1 1 -2 8 -8 1 -3 2 -2 2 -3 2 -2 1 -3 4 -6 2 -2 2 -3 1 -3 6 -9 1 -3 2 -2 4 -6"/>
<path stroke="#666" d="M939 134l2 -2 1 -3 2 -2 2 -3 2 -2 1 -2 4 -4 2 -1 5 -5 2 -1 2 0 1 -1"/>
<path stroke="#949494" d="M75 129l8 0 1 1 2 0 2 1 2 0 2 1 1 1 4 2 5 5 2 1 4 4 1 2 6 6 1 2 4 4 2 3 2 2 1 2 2 3 4 4 1 3 8 8 1 2 6 6 1 2 2 1 2 2 4 2 1 1 6 3 1 1 11 0 2 -1 2 0 2 -1 1 -1 6 -3 5 -5 2 -1 2 -2 1 -2 6 -6 1 -2 2 -3 6 -6 1 -3 2 -2 2 -3"/>
<path stroke="#949494" d="M218 163l2 -2 1 -2 2 -2 2 -3 4 -4 1 -2 6 -6 1 -2 2 -1 2 -2 2 -1 3 -3 6 -3 1 0 2 -1 9 0 2 1 2 0 2 1 1 1 6 3 5 5 2 1 2 2 1 2 6 6 1 2 2 2 2 3 4 4 1 3 4 4 2 3 1 2 8 8 1 3 2 1 4 4 1 2 2 1 2 2 2 1 3 3 2 1 2 0 2 1 1 1 2 0 2 1"/>
<path stroke="#949494" d="M346 203l4 0 1 -1 4 0 4 -2 1 0 2 -1 2 -2 2 -1 3 -3 2 -1 4 -4 1 -2 6 -6 1 -2 2 -2 2 -3 4 -4 1 -3 4 -4 2 -3 1 -2 4 -4 2 -3 2 -2 1 -2 11 -11 4 -2 1 -2 4 -2 2 0 1 -1 2 0 2 -1 7 0 2 1 2 0 2 1 1 1 6 3 1 2 2 1 4 4 2 1 1 2 6 6"/>
<path stroke="#949494" d="M471 149l1 2 2 3 4 4 2 3 1 2 4 4 2 3 1 2 4 4 2 3 2 2 1 2 4 4 2 1 1 2 2 2 2 1 2 2 2 1 1 1 4 2 2 0 1 1 2 0 2 1 5 0 2 -1 2 0 2 -1 2 0 1 -1 4 -2 3 -3 2 -1 11 -11 2 -3 1 -2 4 -4 2 -3 2 -2 1 -2 2 -3 4 -4 1 -3 6 -6 2 -3 1 -2"/>
<path stroke="#949494" d="M586 144l4 -4 2 -1 1 -2 2 -2 2 -1 2 -2 2 -1 1 -1 6 -3 1 -1 4 0 2 -1 3 0 2 1 2 0 2 1 2 0 1 1 4 2 5 5 2 1 7 7 2 3 2 2 1 2 4 4 2 3 2 2 1 2 2 2 2 3 2 2 1 2 2 3 6 6 1 2 9 9 2 1 2 2 2 1 1 1 6 3 1 0 2 1 9 0 2 -1 2 0 2 -1 1 -1"/>
<path stroke="#949494" d="M716 196l6 -3 1 -2 2 -1 2 -2 2 -1 2 -2 1 -2 6 -6 1 -3 6 -6 2 -3 1 -2 2 -2 2 -3 2 -2 1 -2 2 -3 6 -6 1 -2 6 -6 1 -2 2 -2 2 -1 2 -2 2 -1 1 -1 6 -3 1 0 2 -1 11 0 4 2 1 1 6 3 3 3 2 1 4 4 1 2 6 6 1 2 2 2 2 3 4 4 1 2 2 3 4 4"/>
<path stroke="#949494" d="M843 166l1 3 8 8 1 2 6 6 1 2 2 1 2 2 4 2 1 1 6 3 1 1 13 0 4 -2 1 -1 6 -3 3 -3 2 -1 4 -4 1 -2 6 -6 1 -2 2 -2 2 -3 4 -4 1 -3 4 -4 2 -3 1 -2 2 -2 2 -3 4 -4 1 -2 6 -6 1 -2 2 -1 2 -2 2 -1 3 -3 4 -2 2 0 1 -1"/>
<path stroke="#888" d="M75 151l6 0 2 1 3 0 2 1 2 0 2 1 1 1 2 0 4 2 3 3 4 2 5 5 2 1 2 2 1 2 2 1 6 6 1 2 2 1 4 4 1 2 4 4 2 1 2 2 1 2 2 1 2 2 2 1 1 2 8 4 1 1 4 2 2 0 1 1 2 0 2 1 7 0 2 -1 2 0 2 -1 1 0 6 -3 1 -1 4 -2 2 -2 2 -1 5 -5 2 -1 1 -2 2 -2"/>
<path stroke="#888" d="M207 191l2 -1 4 -4 1 -2 20 -20 2 -1 3 -3 6 -3 1 -1 6 -3 1 0 2 -1 11 0 2 1 2 0 1 1 2 0 4 2 1 1 2 1 2 2 4 2 1 2 2 1 11 11 2 1 1 2 6 6 1 2 2 1 9 9 2 1 5 5 6 3 1 1 2 1 2 0 2 1 1 1 6 0 2 1 1 -1 6 0 2 -1 1 -1 2 0 4 -2 1 -1 2 -1"/>
<path stroke="#888" d="M369 204l2 -2 4 -2 1 -2 2 -1 11 -11 2 -1 1 -2 6 -6 1 -2 2 -2 2 -1 4 -4 1 -2 2 -1 2 -2 2 -1 1 -2 4 -2 2 -2 2 -1 1 -1 2 -1 2 0 2 -1 1 -1 4 0 2 -1 3 0 2 1 4 0 2 1 1 0 6 3 1 1 4 2 2 2 2 1 1 2 2 1 2 2 2 1 1 2 4 4 2 1 2 2 1 2"/>
<path stroke="#888" d="M481 178l13 13 2 1 1 2 2 2 2 1 3 3 4 2 2 2 2 1 1 1 2 0 4 2 1 0 2 1 11 0 2 -1 2 0 1 -1 4 -2 2 0 1 -2 6 -3 5 -5 2 -1 2 -2 1 -2 2 -1 6 -6 1 -2 2 -2 2 -1 2 -2 1 -2 6 -6 2 -1 1 -2 2 -2 2 -1 3 -3 2 -1 2 -2 4 -2 1 -1 4 -2 2 0"/>
<path stroke="#888" d="M608 151l1 -1 2 0 2 -1 7 0 2 1 4 0 1 1 6 3 1 1 6 3 5 5 2 1 2 2 1 2 2 1 6 6 1 2 2 2 2 1 2 2 1 2 4 4 2 1 2 2 1 2 2 1 2 2 2 1 1 2 8 4 1 1 4 2 2 0 1 1 2 0 2 1 7 0 2 -1 2 0 2 -1 1 0 6 -3 1 -1 4 -2 2 -2 2 -1 5 -5 2 -1 1 -2 2 -2"/>
<path stroke="#888" d="M741 187l2 -1 4 -4 1 -2 18 -18 2 -1 5 -5 6 -3 1 -1 6 -3 1 0 2 -1 11 0 2 1 2 0 1 1 2 1 2 0 2 1 1 1 2 1 2 2 4 2 1 2 2 1 20 20 1 2 2 2 2 1 7 7 2 1 5 5 6 3 1 1 4 2 2 0 1 1 4 0 2 1 3 0 2 -1 4 0 2 -1 1 -1 2 0 4 -2 1 -1 2 -1 2 -2"/>
<path stroke="#888" d="M905 198l4 -2 1 -2 2 -1 2 -2 2 -1 1 -2 6 -6 2 -1 1 -2 6 -6 1 -2 2 -2 2 -1 4 -4 1 -2 2 -1 2 -2 2 -1 1 -2 4 -2 2 -2 2 -1 1 -1 2 0 4 -2 1 0"/>
<path stroke="red" d="M75 187l6 0 2 1 5 0 2 1 2 0 1 1 2 0 4 2 1 1 2 0 6 3 3 3 4 2 3 3 4 2 5 5 2 1 3 3 2 1 2 2 4 2 1 2 6 3 1 1 8 4 1 1 2 1 2 0 2 1 1 0 2 1 13 0 2 -1 1 0 2 -1 2 0 2 -1 1 -1 4 -2 2 0 2 -1 1 -2 6 -3 3 -3 4 -2 5 -5 2 -1 3 -3 2 -1 2 -2"/>
<path stroke="red" d="M225 205l2 -1 3 -3 4 -2 3 -3 8 -4 1 0 4 -2 2 0 1 -1 4 0 2 -1 7 0 2 1 3 0 2 1 2 0 2 1 1 1 8 4 1 1 6 3 1 2 4 2 2 2 2 1 3 3 2 1 3 3 2 1 2 2 4 2 1 2 6 3 1 1 8 4 1 1 2 1 2 0 2 1 1 0 2 1 13 0 2 -1 1 0 2 -1 2 0 2 -1 1 -1 2 -1 2 0"/>
<path stroke="red" d="M371 228l4 -2 1 -2 6 -3 3 -3 4 -2 5 -5 4 -2 1 -2 2 -1 2 -2 4 -2 1 -2 6 -3 1 -2 6 -3 2 0 1 -1 4 -2 2 0 1 -1 4 0 2 -1 7 0 2 1 3 0 4 2 2 0 1 1 8 4 1 1 6 3 1 2 4 2 2 2 2 1 3 3 2 1 3 3 2 1 2 2 4 2 1 2 6 3 3 3 2 0 4 2 1 1 2 1"/>
<path stroke="red" d="M515 230l2 0 2 1 1 0 2 1 13 0 2 -1 1 0 2 -1 2 0 2 -1 1 -1 2 0 6 -3 3 -3 4 -2 3 -3 4 -2 5 -5 4 -2 1 -2 2 -1 2 -2 4 -2 1 -2 6 -3 3 -3 4 -2 2 0 1 -1 4 -2 2 0 1 -1 4 0 2 -1 7 0 2 1 3 0 4 2 2 0 1 1 8 4 1 1 6 3 1 2 4 2 2 2 2 1"/>
<path stroke="red" d="M658 205l3 3 2 1 5 5 4 2 3 3 6 3 1 2 4 2 2 0 2 1 1 1 2 1 2 0 2 1 1 0 2 1 13 0 2 -1 1 0 2 -1 2 0 2 -1 1 -1 2 0 6 -3 3 -3 4 -2 3 -3 4 -2 3 -3 2 -1 2 -2 2 -1 1 -2 2 -1 2 -2 4 -2 1 -2 6 -3 1 -1 2 -1 2 -2 2 0 2 -1 1 -1 4 -2 2 0"/>
<path stroke="red" d="M786 187l1 -1 6 0 2 -1 3 0 2 1 4 0 1 1 2 0 2 1 2 0 1 1 8 4 1 1 6 3 1 2 4 2 2 2 2 1 1 2 4 2 5 5 4 2 3 3 4 2 3 3 6 3 2 0 1 1 2 1 2 0 2 1 1 0 2 1 13 0 2 -1 3 0 4 -2 1 0 8 -4 1 -1 2 -1 2 -2 2 -1 1 -1 2 -1 2 -2 2 -1 3 -3 2 -1"/>
<path stroke="red" d="M928 209l2 -2 2 -1 1 -2 4 -2 2 -2 2 -1 1 -2 6 -3 1 -1 8 -4 1 -1 2 -1 2 0 2 -1 1 0"/>
</svg>
