<?xml version="1.0" standalone="yes"?>
<!DOCTYPE svg PUBLIC "-//W3C//DTD SVG 1.1//EN"
 "http://www.w3.org/Graphics/SVG/1.1/DTD/svg11.dtd">
<svg xmlns="http://www.w3.org/2000/svg" version="1.1"
  width="100%" height="100%" viewBox="0 0 1024 768"
  style="fill: none; font-family: Helvetica;
 font: Helvetica;
">

<!-- Creator: NGspice -->

<rect x="0" y="0" width="1024" height="768" fill="black" stroke="none"/>
<text stroke="none" fill="white" font-size="16" x="358" y="752">
frequency
</text>
<text stroke="none" fill="white" font-size="16" x="10" y="16">
sp2: ** sch_path: /usr/local/google/home/sachinnadig/mixedsignal_env/gf180_gafe_1/top_extracted.sch
</text>
<path stroke="white" d="M50 704l0 -638"/>
<text stroke="none" fill="white" font-size="16" x="35" y="728">
0.0
</text>
<path stroke="white" stroke-dasharray="1,2" d="M134 704l0 -638"/>
<text stroke="none" fill="white" font-size="16" x="114" y="728">
10.0
</text>
<path stroke="white" stroke-dasharray="1,2" d="M218 704l0 -638"/>
<text stroke="none" fill="white" font-size="16" x="198" y="728">
20.0
</text>
<path stroke="white" stroke-dasharray="1,2" d="M302 704l0 -638"/>
<text stroke="none" fill="white" font-size="16" x="282" y="728">
30.0
</text>
<path stroke="white" stroke-dasharray="1,2" d="M386 704l0 -638"/>
<text stroke="none" fill="white" font-size="16" x="366" y="728">
40.0
</text>
<path stroke="white" stroke-dasharray="1,2" d="M470 704l0 -638"/>
<text stroke="none" fill="white" font-size="16" x="450" y="728">
50.0
</text>
<path stroke="white" stroke-dasharray="1,2" d="M554 704l0 -638"/>
<text stroke="none" fill="white" font-size="16" x="534" y="728">
60.0
</text>
<path stroke="white" stroke-dasharray="1,2" d="M638 704l0 -638"/>
<text stroke="none" fill="white" font-size="16" x="618" y="728">
70.0
</text>
<path stroke="white" stroke-dasharray="1,2" d="M722 704l0 -638"/>
<text stroke="none" fill="white" font-size="16" x="702" y="728">
80.0
</text>
<path stroke="white" stroke-dasharray="1,2" d="M806 704l0 -638"/>
<text stroke="none" fill="white" font-size="16" x="786" y="728">
90.0
</text>
<path stroke="white" stroke-dasharray="1,2" d="M890 704l0 -638"/>
<text stroke="none" fill="white" font-size="16" x="865" y="728">
100.0
</text>
<path stroke="white" stroke-dasharray="1,2" d="M974 704l0 -638"/>
<text stroke="none" fill="white" font-size="16" x="949" y="728">
110.0
</text>
<text stroke="none" fill="white" font-size="16" x="614" y="752">
MHz
</text>
<path stroke="white" d="M50 704l924 0"/>
<text stroke="none" fill="white" font-size="16" x="18" y="712">
0.0
</text>
<path stroke="white" stroke-dasharray="1,2" d="M50 646l924 0"/>
<text stroke="none" fill="white" font-size="16" x="18" y="654">
0.1
</text>
<path stroke="white" stroke-dasharray="1,2" d="M50 588l924 0"/>
<text stroke="none" fill="white" font-size="16" x="18" y="596">
0.2
</text>
<path stroke="white" stroke-dasharray="1,2" d="M50 530l924 0"/>
<text stroke="none" fill="white" font-size="16" x="18" y="538">
0.3
</text>
<path stroke="white" stroke-dasharray="1,2" d="M50 472l924 0"/>
<text stroke="none" fill="white" font-size="16" x="18" y="480">
0.4
</text>
<path stroke="white" stroke-dasharray="1,2" d="M50 414l924 0"/>
<text stroke="none" fill="white" font-size="16" x="18" y="422">
0.5
</text>
<path stroke="white" stroke-dasharray="1,2" d="M50 356l924 0"/>
<text stroke="none" fill="white" font-size="16" x="18" y="364">
0.6
</text>
<path stroke="white" stroke-dasharray="1,2" d="M50 298l924 0"/>
<text stroke="none" fill="white" font-size="16" x="18" y="306">
0.7
</text>
<path stroke="white" stroke-dasharray="1,2" d="M50 240l924 0"/>
<text stroke="none" fill="white" font-size="16" x="18" y="248">
0.8
</text>
<path stroke="white" stroke-dasharray="1,2" d="M50 182l924 0"/>
<text stroke="none" fill="white" font-size="16" x="18" y="190">
0.9
</text>
<path stroke="white" stroke-dasharray="1,2" d="M50 124l924 0"/>
<text stroke="none" fill="white" font-size="16" x="18" y="132">
1.0
</text>
<path stroke="white" stroke-dasharray="1,2" d="M50 66l924 0"/>
<text stroke="none" fill="white" font-size="16" x="18" y="74">
1.1
</text>
<text stroke="none" fill="white" font-size="16" x="10" y="32">
     
</text>
<path stroke="red" d="M462 23l46 0"/>
<text stroke="none" fill="white" font-size="16" x="518" y="32">
mag((x1.osc_sig))
</text>
<path stroke="red" d="M50 78l1 168 1 294M52 686l0 -146M52 686l1 18 2 0 1 -1 1 1 32 0 1 -1 3 0 1 -30 0 -125 1 -157 1 -14 1 146 1 136M98 701l0 -42M98 701l2 2 1 0 1 1 35 0 1 -1 1 0 0 -17 1 -41 1 -29 1 18 1 41 1 24M144 703l0 -4M144 703l2 0 1 1 37 0"/>
<path stroke="red" d="M184 704l1 -2 0 -13 1 -18 1 -4 1 14 1 16 1 6 1 1 39 0 1 -4 0 -12 1 -10 1 4 1 12 1 8 2 2 38 0 1 -1 1 -3 0 -6 1 -2 1 4 1 5 1 2M281 704l0 -1M281 704l41 0 1 -1 0 -1 1 0 2 2 42 0 0 -1 1 -1 2 2 42 0 1 -1 0 -1 1 0 2 2 42 0 1 -1"/>
<path stroke="red" d="M460 703l1 0 1 1 44 0 0 -1 1 1 90 0 0 -1 1 1 293 0"/>
</svg>
