<?xml version="1.0" standalone="yes"?>
<!DOCTYPE svg PUBLIC "-//W3C//DTD SVG 1.1//EN"
 "http://www.w3.org/Graphics/SVG/1.1/DTD/svg11.dtd">
<svg xmlns="http://www.w3.org/2000/svg" version="1.1"
  width="100%" height="100%" viewBox="0 0 1024 768"
  style="fill: none; font-family: Arial;
 font: Arial;
">

<!-- Creator: NGspice -->

<rect x="0" y="0" width="1024" height="768" fill="white" stroke="none"/>
<text stroke="none" fill="black" font-size="16" x="358" y="752">
Frequency(Hz)
</text>
<text transform="rotate(-90, 20, 424)"  stroke="none" fill="black" font-size="16" x="20" y="424">
Gain(db)
</text>
<text stroke="none" fill="black" font-size="16" x="10" y="16">
ac20: Gain(dB)
</text>
<path stroke="black" d="M95 704l0 -637"/>
<text stroke="none" fill="black" font-size="16" x="90" y="728">
1
</text>
<path stroke="black" stroke-dasharray="1,2" d="M152 704l0 -637M168 704l0 -637M180 704l0 -637"/>
<path stroke="black" d="M190 704l0 -637"/>
<text stroke="none" fill="black" font-size="16" x="180" y="728">
10
</text>
<path stroke="black" stroke-dasharray="1,2" d="M247 704l0 -637M263 704l0 -637M275 704l0 -637"/>
<path stroke="black" d="M285 704l0 -637"/>
<text stroke="none" fill="black" font-size="16" x="270" y="728">
100
</text>
<path stroke="black" stroke-dasharray="1,2" d="M342 704l0 -637M358 704l0 -637M370 704l0 -637"/>
<path stroke="black" d="M380 704l0 -637"/>
<text stroke="none" fill="black" font-size="16" x="360" y="728">
10^3
</text>
<path stroke="black" stroke-dasharray="1,2" d="M437 704l0 -637M453 704l0 -637M465 704l0 -637"/>
<path stroke="black" d="M475 704l0 -637"/>
<text stroke="none" fill="black" font-size="16" x="455" y="728">
10^4
</text>
<path stroke="black" stroke-dasharray="1,2" d="M532 704l0 -637M548 704l0 -637M560 704l0 -637"/>
<path stroke="black" d="M570 704l0 -637"/>
<text stroke="none" fill="black" font-size="16" x="550" y="728">
10^5
</text>
<path stroke="black" stroke-dasharray="1,2" d="M627 704l0 -637M643 704l0 -637M655 704l0 -637"/>
<path stroke="black" d="M665 704l0 -637"/>
<text stroke="none" fill="black" font-size="16" x="645" y="728">
10^6
</text>
<path stroke="black" stroke-dasharray="1,2" d="M722 704l0 -637M738 704l0 -637M750 704l0 -637"/>
<path stroke="black" d="M760 704l0 -637"/>
<text stroke="none" fill="black" font-size="16" x="740" y="728">
10^7
</text>
<path stroke="black" stroke-dasharray="1,2" d="M817 704l0 -637M833 704l0 -637M845 704l0 -637"/>
<path stroke="black" d="M855 704l0 -637"/>
<text stroke="none" fill="black" font-size="16" x="835" y="728">
10^8
</text>
<path stroke="black" stroke-dasharray="1,2" d="M912 704l0 -637M928 704l0 -637M940 704l0 -637"/>
<path stroke="black" d="M950 704l0 -637"/>
<text stroke="none" fill="black" font-size="16" x="930" y="728">
10^9
</text>
<text stroke="none" fill="black" font-size="16" x="614" y="752">
Hz
</text>
<path stroke="black" stroke-dasharray="1,2" d="M95 704l855 0"/>
<text stroke="none" fill="black" font-size="16" x="43" y="712">
-40.0
</text>
<path stroke="black" stroke-dasharray="1,2" d="M95 613l855 0"/>
<text stroke="none" fill="black" font-size="16" x="43" y="621">
-20.0
</text>
<path stroke="black" d="M95 522l855 0"/>
<text stroke="none" fill="black" font-size="16" x="63" y="530">
0.0
</text>
<path stroke="black" stroke-dasharray="1,2" d="M95 431l855 0"/>
<text stroke="none" fill="black" font-size="16" x="53" y="439">
20.0
</text>
<path stroke="black" stroke-dasharray="1,2" d="M95 340l855 0"/>
<text stroke="none" fill="black" font-size="16" x="53" y="348">
40.0
</text>
<path stroke="black" stroke-dasharray="1,2" d="M95 249l855 0"/>
<text stroke="none" fill="black" font-size="16" x="53" y="257">
60.0
</text>
<path stroke="black" stroke-dasharray="1,2" d="M95 158l855 0"/>
<text stroke="none" fill="black" font-size="16" x="53" y="166">
80.0
</text>
<path stroke="black" stroke-dasharray="1,2" d="M95 67l855 0"/>
<text stroke="none" fill="black" font-size="16" x="43" y="75">
100.0
</text>
<text stroke="none" fill="black" font-size="16" x="10" y="32">
dB
</text>
<path stroke="red" d="M95 151l336 0 9 1 29 0 9 1 20 2 9 2 10 3 9 3 10 5 10 6 9 6 10 8 9 8 10 8 10 9 9 9 10 9 9 9 10 9 9 9 20 18 9 10 10 9 9 9 20 18 28 28 20 18 9 10 10 9 9 10 10 10 9 10 10 10 10 11 9 12 10 13 9 12 10 13 10 12 9 11 10 10 9 8"/>
<path stroke="blue" d="M95 151l355 0 9 1 10 0 9 1 20 2 9 2 10 3 9 4 10 5 10 6 9 7 10 8 9 8 10 8 10 9 9 9 10 9 9 9 10 9 9 9 20 18 9 10 10 9 9 9 20 18 9 10 10 9 9 9 10 9 19 19 10 9 9 10 10 10 9 10 20 22 9 12 10 12 9 13 20 24 9 11 19 19"/>
<path stroke="#FFA500" d="M95 151l364 0 10 1 9 1 20 2 9 3 10 3 9 4 10 5 10 7 9 7 10 8 9 8 10 8 10 9 9 9 10 9 9 9 10 9 19 19 10 9 9 9 10 9 9 9 10 9 19 19 10 9 19 19 10 9 38 38 9 10 20 22 9 12 10 13 9 12 10 13 10 12 9 11 10 10 9 8"/>
<path stroke="green" d="M95 151l355 0 9 1 10 0 9 1 10 1 10 2 9 2 10 4 9 4 20 12 9 8 10 8 9 8 10 9 10 8 9 9 10 9 9 10 10 9 9 9 20 18 9 9 10 9 9 10 20 18 9 9 10 9 9 10 20 18 9 10 10 9 9 10 10 10 9 10 20 22 9 12 10 13 9 12 10 13 10 12 9 10 19 19"/>
<path stroke="#FFC0C5" d="M95 151l345 0 10 1 19 0 9 1 20 4 9 2 10 4 9 5 20 12 9 8 10 8 9 8 20 18 9 9 10 9 9 9 10 9 19 19 10 9 9 9 10 9 9 9 10 9 19 19 10 9 19 19 10 9 38 38 9 11 10 10 10 12 9 12 10 13 9 12 10 13 10 12 9 10 19 19"/>
<path stroke="#A52A2A" d="M95 151l345 0 10 1 9 0 10 1 9 1 10 1 10 3 9 3 10 4 9 5 10 6 10 7 9 7 10 8 9 9 20 18 9 9 10 9 9 9 10 9 9 9 20 18 9 10 10 9 9 9 20 18 9 10 10 9 9 9 10 9 48 48 9 11 20 22 9 12 10 13 9 13 20 24 9 11 19 19"/>
<path stroke="#F0E68C" d="M95 151l336 0 9 1 19 0 10 1 9 1 20 4 9 4 10 4 9 6 10 6 10 7 9 8 10 8 9 9 20 18 9 9 10 9 9 9 10 9 9 9 20 18 9 10 10 9 9 9 20 18 9 10 10 9 9 9 10 9 48 48 9 11 20 22 9 13 10 12 9 13 10 13 10 11 9 11 19 19"/>
<path stroke="#DDA0DD" d="M95 151l336 0 9 1 10 0 9 1 10 1 9 1 20 4 9 4 10 5 9 6 10 6 10 8 9 8 10 8 9 9 20 18 9 9 10 9 9 9 10 9 9 9 10 9 19 19 10 9 9 9 20 18 9 10 10 9 9 9 10 9 29 29 9 10 10 10 9 10 10 11 10 12 9 12 10 13 9 13 20 24 9 11 19 19"/>
<path stroke="#DA70D6" d="M95 151l336 0 9 1 10 0 9 1 10 1 9 1 10 2 10 4 9 4 10 5 9 6 10 7 10 8 9 8 10 8 9 9 20 18 9 9 10 9 9 9 10 9 9 10 20 18 9 9 10 9 19 19 10 9 9 9 10 9 9 10 20 18 9 10 10 9 9 10 10 10 9 11 10 11 10 12 9 12 10 13 9 13 20 24"/>
<path stroke="#DA70D6" d="M872 525l9 11 10 10 9 10"/>
<path stroke="#EE82EE" d="M95 150l297 0 10 1 38 0 10 1 9 1 10 1 9 2 10 2 10 4 9 4 10 6 9 6 20 16 9 8 10 9 9 8 20 18 9 10 10 9 9 9 10 9 9 9 20 18 9 10 10 9 9 9 20 18 9 10 10 9 9 9 10 9 29 29 9 10 10 10 9 11 10 11 10 12 9 13 10 12 9 13 10 13 10 11"/>
<path stroke="#EE82EE" d="M872 529l9 11 10 11 9 10"/>
<path stroke="#B03060" d="M95 150l336 0 9 1 10 0 9 1 10 2 9 2 10 3 10 4 9 5 10 6 9 7 20 16 9 9 10 8 9 9 20 18 9 9 10 9 9 10 10 9 9 9 20 18 9 10 10 9 9 9 20 18 9 10 10 9 9 9 10 9 29 29 9 10 10 10 9 11 10 11 10 13 9 12 10 13 9 13 20 24 9 11 10 11"/>
<path stroke="#B03060" d="M891 556l9 10"/>
<path stroke="#40E0D0" d="M95 148l307 0 9 1 20 0 9 1 10 1 9 1 10 2 9 2 10 4 10 5 9 5 10 7 9 7 10 8 10 9 9 8 10 9 9 9 20 18 28 28 10 9 9 9 10 9 19 19 10 9 9 9 20 18 9 10 10 9 19 19 10 9 19 19 9 10 10 11 9 11 10 11 10 12 9 13 10 13 9 13 20 24 9 11"/>
<path stroke="#40E0D0" d="M881 550l10 11 9 11"/>
<path stroke="#A0522D" d="M95 146l297 0 10 1 19 0 10 1 9 0 10 1 9 2 10 3 9 3 10 4 10 6 9 6 10 7 9 8 10 8 10 9 9 9 10 9 9 9 20 18 9 9 10 9 9 9 10 9 9 10 20 18 9 9 10 9 9 10 20 18 9 9 10 9 9 10 10 9 29 29 9 10 10 11 9 11 10 11 10 13 9 13 10 13"/>
<path stroke="#A0522D" d="M843 508l9 12 10 13 10 12 9 11 10 11 9 11"/>
<path stroke="#FF7F50" d="M95 144l316 0 20 2 9 1 10 1 9 2 10 4 9 4 10 5 10 6 9 7 10 8 9 8 10 9 10 8 9 9 10 9 19 19 10 9 9 9 10 9 9 9 10 9 9 10 20 18 9 9 10 9 9 10 20 18 9 9 10 9 9 10 10 9 29 29 9 10 10 11 9 11 10 12 10 13 9 13 10 13 9 12 10 13"/>
<path stroke="#FF7F50" d="M862 539l10 12 9 11 10 12 9 11"/>
<path stroke="cyan" d="M95 140l268 0 10 1 29 0 9 1 10 0 10 1 9 2 10 2 9 3 10 4 9 5 10 6 10 8 9 7 10 8 9 9 20 18 9 9 10 9 9 9 20 18 9 9 10 9 9 10 10 9 9 9 20 18 9 10 10 9 9 9 20 18 9 10 10 9 19 19 10 9 9 10 10 10 9 10 10 11 9 11 10 13 10 12 9 13"/>
<path stroke="cyan" d="M833 507l10 13 9 13 10 12 10 13 9 11 10 12 9 13"/>
<path stroke="magenta" d="M95 136l278 0 10 1 19 0 9 1 10 1 10 2 9 2 10 3 9 4 10 6 9 6 10 7 10 8 9 8 10 9 9 8 20 18 28 28 20 18 9 9 10 9 9 10 10 9 9 9 20 18 28 28 20 18 9 10 10 9 19 19 10 9 9 10 10 10 9 10 10 11 9 12 20 26 9 13 10 13 9 12 10 13"/>
<path stroke="magenta" d="M862 553l10 12 9 13 10 12 9 13"/>
<path stroke="#666" d="M95 131l268 0 10 1 19 0 10 1 9 1 10 2 10 3 9 3 10 5 9 5 10 7 9 7 20 16 9 9 10 9 9 9 20 18 9 9 10 9 9 9 10 9 19 19 10 9 9 9 10 9 9 10 20 18 9 9 10 9 9 10 20 18 28 28 10 9 10 10 9 10 10 10 9 11 10 11 9 12 20 26 9 13 10 13"/>
<path stroke="#666" d="M843 536l9 13 10 12 10 13 9 13 10 13 9 14"/>
<path stroke="#949494" d="M95 125l249 0 10 1 19 0 10 1 9 1 10 1 9 2 10 3 10 4 9 5 10 6 9 7 10 8 9 8 10 8 10 9 9 9 10 9 9 9 20 18 28 28 20 18 9 9 10 9 9 10 10 9 9 9 20 18 9 10 10 9 9 9 20 18 9 10 10 9 29 29 9 10 10 10 9 11 10 12 9 12 20 26 9 13"/>
<path stroke="#949494" d="M833 532l10 13 9 13 20 26 9 14 10 14 9 15"/>
<path stroke="#888" d="M95 118l201 0 10 1 48 0 9 1 20 2 9 2 10 3 9 3 20 10 9 7 10 7 9 8 10 9 9 8 20 18 9 9 10 9 19 19 10 9 9 9 10 9 19 19 10 9 9 9 10 9 9 9 10 9 9 10 20 18 9 9 10 9 9 10 20 18 48 48 9 10 10 10 9 12 10 12 9 12 20 26 9 14 10 13"/>
<path stroke="#888" d="M843 556l9 13 10 13 10 14 9 15 10 15 9 16"/>
<path stroke="red" d="M95 111l211 0 10 1 19 0 9 1 10 0 9 2 10 1 10 3 9 3 10 5 9 5 20 14 9 8 10 8 9 9 10 9 9 9 20 18 9 9 10 9 19 19 10 9 9 9 10 9 9 9 10 9 19 19 10 9 9 9 10 9 9 10 20 18 9 9 10 9 9 10 20 18 48 48 9 10 10 11 9 12 10 12 9 13 10 13"/>
<path stroke="red" d="M814 528l10 14 9 13 10 13 9 14 10 14 10 15 9 16 10 17 9 17"/>
</svg>
